<svg xmlns="http://www.w3.org/2000/svg" xmlns:xlink="http://www.w3.org/1999/xlink" width="1920" height="1080" fill="none" xmlns:v="https://vecta.io/nano"><style><![CDATA[.B{fill:#141414}.C{fill:#8d8c92}.D{fill:#ffd670}.E{fill:#70d6ff}.F{fill:#ff9770}.G{fill:#ff70a6}.H{fill:#e9ff70}]]></style><g opacity=".15"><mask id="A" mask-type="alpha" maskUnits="userSpaceOnUse" x="0" y="0" width="1920" height="1080"><path fill="#333" d="M0 0h1920v1080H0z"/></mask><g mask="url(#A)"><path d="M307.298 1078.87v6.32l-13.361-16.89-13.361 16.89-13.361-16.89-13.27 16.89-13.361-16.89-13.361 16.89-13.36-16.89-13.361 16.89-13.271-16.89-13.36 16.89-13.361-16.89-13.361 16.89-13.361-16.89-13.27 16.89-13.361-16.89-13.361 16.89-13.361-16.89-13.361 16.89-13.361-16.89-13.271 16.89-13.361-16.89-13.361 16.89L.361 1068.3l-.361.55v-6.41l.361-.46 13.361 16.89 13.361-16.89 13.361 16.89 13.271-16.89 13.361 16.89 13.361-16.89 13.361 16.89 13.361-16.89 13.27 16.89 13.361-16.89 13.361 16.89 13.361-16.89 13.361 16.89 13.27-16.89 13.361 16.89 13.361-16.89 13.36 16.89 13.361-16.89 13.361 16.89 13.27-16.89 13.361 16.89 13.361-16.89 13.361 16.89z" class="F"/><path d="M347.561 1030.39v6.32l-13.361 16.88-13.361-16.88-13.27 16.88-13.361-16.88-13.361 16.88-13.361-16.88-13.361 16.88-13.27-16.88-13.361 16.88-13.361-16.88-13.36 16.88-13.361-16.88-13.271 16.88-13.36-16.88-13.361 16.88-13.361-16.88-13.361 16.88-13.361-16.88-13.27 16.88-13.361-16.88-13.361 16.88v-6.32l13.361-16.88 13.361 16.88 13.27-16.88 13.361 16.88 13.361-16.88 13.361 16.88 13.361-16.88 13.27 16.88 13.361-16.88 13.361 16.88 13.36-16.88 13.361 16.88 13.271-16.88 13.36 16.88 13.361-16.88 13.361 16.88 13.361-16.88 13.361 16.88 13.27-16.88 13.361 16.88 13.361-16.88zM1383.92 25.983v182.808h182.81V25.983h-182.81zm176.94 176.85h-170.98V31.851h170.98v170.982z" class="B"/><path d="M1037.54 257.088c-52.273 0-94.613 42.34-94.613 94.609s42.34 94.699 94.613 94.699 94.6-42.339 94.6-94.609-42.33-94.699-94.6-94.699zm0 184.704c-49.746 0-90.009-40.353-90.009-90.005 0-49.741 40.354-90.004 90.009-90.004 49.74 0 90 40.353 90 90.004.09 49.652-40.26 90.005-90 90.005z" class="G"/><path d="M255.931 225.492c-44.686 0-80.887 36.201-80.887 80.887s36.201 80.887 80.887 80.887v-3.972c-42.52 0-76.915-34.395-76.915-76.915s34.395-76.915 76.915-76.915 76.915 34.395 76.915 76.915h3.972c0-44.686-36.201-80.887-80.887-80.887z" class="H"/><path d="M960.608 823.15a6.68 6.68 0 0 0-4.966-8.037c-3.591-.848-7.189 1.376-8.037 4.966s1.376 7.189 4.967 8.037a6.68 6.68 0 0 0 8.036-4.966zm24.981 4.504a6.681 6.681 0 0 0-5.113-12.344c-3.409 1.412-5.028 5.32-3.616 8.729a6.68 6.68 0 0 0 8.729 3.615zm32.701-4.517a6.69 6.69 0 0 0-4.97-8.036c-3.59-.848-7.19 1.376-8.04 4.966s1.38 7.189 4.97 8.037a6.69 6.69 0 0 0 8.04-4.967z" class="B"/><use xlink:href="#C" class="B"/><path d="M1075.96 823.126c.85-3.591-1.37-7.189-4.96-8.037s-7.19 1.376-8.04 4.966 1.38 7.189 4.97 8.037 7.18-1.376 8.03-4.966z" class="B"/><use xlink:href="#C" x="57.68" y="-0.01" class="B"/><path d="M1133.64 823.114c.85-3.591-1.38-7.189-4.97-8.037s-7.19 1.376-8.03 4.967c-.85 3.59 1.37 7.188 4.96 8.036s7.19-1.375 8.04-4.966z" class="B"/><use xlink:href="#D" class="B"/><use xlink:href="#E" class="B"/><path d="M1218.35 826.219a6.68 6.68 0 0 0 0-9.448c-2.61-2.609-6.84-2.609-9.45 0a6.7 6.7 0 0 0 0 9.448c2.61 2.609 6.84 2.609 9.45 0zm-259.494 28.887a6.681 6.681 0 1 0-9.448-9.448c-2.608 2.609-2.608 6.839 0 9.448s6.839 2.608 9.448 0zm30.773-3.711c.591-3.642-1.882-7.074-5.524-7.665a6.68 6.68 0 0 0-7.664 5.524c-.591 3.642 1.882 7.074 5.524 7.665a6.68 6.68 0 0 0 7.664-5.524z" class="B"/><use xlink:href="#C" x="-28.77" y="28.846" class="B"/><path d="M1047.17 852.028a6.69 6.69 0 0 0-4.97-8.037c-3.59-.848-7.19 1.376-8.04 4.966s1.38 7.189 4.97 8.037a6.69 6.69 0 0 0 8.04-4.966z" class="B"/><use xlink:href="#C" x="28.91" y="28.836" class="B"/><path d="M1104.84 852.016c.85-3.591-1.37-7.189-4.96-8.037s-7.19 1.376-8.04 4.967 1.38 7.188 4.97 8.036 7.18-1.376 8.03-4.966z" class="B"/><use xlink:href="#F" class="B"/><path d="M1162.52 852.004c.85-3.59-1.38-7.189-4.97-8.036a6.67 6.67 0 0 0-8.03 4.966c-.85 3.59 1.37 7.188 4.96 8.036s7.19-1.375 8.04-4.966z" class="B"/><use xlink:href="#C" x="144.21" y="28.879" class="B"/><use xlink:href="#G" class="B"/><path d="M960.62 880.827c.848-3.591-1.376-7.189-4.966-8.037s-7.189 1.376-8.037 4.966 1.376 7.189 4.966 8.037 7.189-1.376 8.037-4.966zm24.976 4.513a6.68 6.68 0 0 0 3.615-8.728c-1.412-3.409-5.32-5.028-8.729-3.616a6.68 6.68 0 1 0 5.114 12.344z" class="B"/><use xlink:href="#E" x="-173" y="57.625" class="B"/><use xlink:href="#H" class="B"/><path d="M1075.97 880.803c.85-3.591-1.37-7.189-4.96-8.037a6.69 6.69 0 0 0-8.04 4.967c-.85 3.59 1.38 7.188 4.97 8.036a6.67 6.67 0 0 0 8.03-4.966z" class="B"/><use xlink:href="#C" x="57.69" y="57.671" class="B"/><path d="M1133.65 880.791c.85-3.591-1.37-7.189-4.97-8.037-3.59-.847-7.18 1.376-8.03 4.967s1.37 7.188 4.96 8.036a6.68 6.68 0 0 0 8.04-4.966z" class="B"/><use xlink:href="#D" x="0.01" y="57.681" class="B"/><path d="M1191.31 880.867c.85-3.591-1.38-7.189-4.97-8.036s-7.19 1.375-8.04 4.966a6.69 6.69 0 0 0 4.97 8.036c3.59.848 7.19-1.375 8.04-4.966zm27.05 3.033a6.68 6.68 0 0 0 0-9.448c-2.61-2.608-6.84-2.608-9.44 0a6.68 6.68 0 0 0 0 9.448c2.6 2.609 6.83 2.609 9.44 0zm-259.494 28.887a6.68 6.68 0 1 0-9.447-9.448 6.68 6.68 0 1 0 9.447 9.448zm30.779-3.718a6.68 6.68 0 0 0-5.524-7.664c-3.642-.591-7.074 1.882-7.665 5.524a6.68 6.68 0 0 0 5.524 7.664c3.642.591 7.074-1.882 7.665-5.524z" class="B"/><use xlink:href="#C" x="-28.76" y="86.527" class="B"/><use xlink:href="#G" x="-173.02" y="57.713" class="B"/><use xlink:href="#C" x="28.92" y="86.517" class="B"/><path d="M1104.85 909.693c.85-3.59-1.37-7.188-4.96-8.036s-7.19 1.375-8.04 4.966 1.38 7.189 4.97 8.037 7.19-1.376 8.03-4.967z" class="B"/><use xlink:href="#C" x="86.6" y="86.507" class="B"/><path d="M1162.53 909.681c.85-3.59-1.37-7.189-4.96-8.036a6.68 6.68 0 0 0-8.04 4.966c-.85 3.59 1.37 7.188 4.97 8.036 3.59.848 7.18-1.375 8.03-4.966z" class="B"/><use xlink:href="#F" x="57.63" y="57.735" class="B"/><path d="M1220.21 909.669c.85-3.59-1.38-7.188-4.97-8.036a6.67 6.67 0 0 0-8.03 4.966c-.85 3.591 1.37 7.189 4.96 8.036s7.19-1.375 8.04-4.966zm-259.578 28.834a6.68 6.68 0 0 0-4.966-8.036c-3.591-.848-7.189 1.376-8.037 4.966s1.376 7.189 4.966 8.037a6.68 6.68 0 0 0 8.037-4.967zm24.97 4.523a6.68 6.68 0 0 0 3.616-8.728c-1.412-3.409-5.32-5.028-8.729-3.616a6.681 6.681 0 1 0 5.113 12.344zm32.708-4.534c.85-3.591-1.38-7.189-4.97-8.037s-7.19 1.376-8.03 4.966c-.85 3.591 1.37 7.189 4.96 8.037s7.19-1.376 8.04-4.966z" class="B"/><use xlink:href="#C" x="0.02" y="115.363" class="B"/><path d="M1075.99 938.48a6.69 6.69 0 0 0-4.97-8.037 6.69 6.69 0 0 0-8.04 4.967 6.69 6.69 0 0 0 4.97 8.036c3.59.848 7.19-1.375 8.04-4.966z" class="B"/><use xlink:href="#H" x="57.69" y="57.671" class="B"/><path d="M1133.66 938.468c.85-3.591-1.37-7.189-4.96-8.036s-7.19 1.375-8.04 4.966 1.38 7.188 4.97 8.036a6.67 6.67 0 0 0 8.03-4.966z" class="B"/><use xlink:href="#D" x="0.02" y="115.362" class="B"/><path d="M1191.32 938.544c.85-3.591-1.38-7.189-4.97-8.036a6.67 6.67 0 0 0-8.03 4.966c-.85 3.59 1.37 7.188 4.96 8.036s7.19-1.375 8.04-4.966zm27.05 3.037a6.68 6.68 0 0 0 0-9.447c-2.61-2.609-6.84-2.609-9.44 0a6.68 6.68 0 0 0 0 9.447c2.6 2.609 6.83 2.609 9.44 0zm-259.557 28.823a6.68 6.68 0 1 0-9.448-9.447 6.68 6.68 0 1 0 9.448 9.447zm30.758-3.675a6.68 6.68 0 1 0-13.188-2.14 6.68 6.68 0 1 0 13.188 2.14zm26.919 3.665a6.68 6.68 0 0 0 0-9.448c-2.61-2.608-6.83-2.608-9.44 0a6.68 6.68 0 0 0 0 9.448c2.61 2.609 6.84 2.609 9.44 0zm30.61-3.032c.85-3.591-1.37-7.189-4.97-8.037-3.59-.848-7.18 1.376-8.03 4.966s1.37 7.189 4.96 8.037c3.6.847 7.19-1.376 8.04-4.966zm27.08 3.022a6.7 6.7 0 0 0 0-9.448c-2.61-2.609-6.84-2.609-9.45 0a6.68 6.68 0 0 0 0 9.448c2.61 2.608 6.84 2.608 9.45 0zm30.6-3.034c.85-3.591-1.38-7.189-4.97-8.037s-7.19 1.376-8.03 4.967c-.85 3.59 1.37 7.188 4.96 8.036s7.19-1.376 8.04-4.966zm27.08 3.023a6.7 6.7 0 0 0 0-9.447c-2.61-2.609-6.84-2.609-9.45 0a6.68 6.68 0 0 0 0 9.447c2.61 2.609 6.84 2.609 9.45 0z" class="B"/><use xlink:href="#E" x="-28.84" y="144.148" class="B"/><path d="M1189.47 970.427a6.68 6.68 0 0 0 0-9.448c-2.61-2.608-6.83-2.608-9.44.001a6.68 6.68 0 0 0 0 9.447 6.67 6.67 0 0 0 9.44 0zm30.66-3.101c.85-3.591-1.37-7.189-4.96-8.037a6.69 6.69 0 0 0-8.04 4.967c-.85 3.59 1.38 7.188 4.97 8.036s7.18-1.376 8.03-4.966zm-259.486 28.855c.847-3.591-1.376-7.189-4.967-8.037a6.68 6.68 0 0 0-8.036 4.966c-.848 3.591 1.376 7.19 4.966 8.04a6.69 6.69 0 0 0 8.037-4.969zm24.965 4.529c3.409-1.409 5.027-5.317 3.615-8.726a6.681 6.681 0 1 0-3.615 8.726zm32.711-4.541c.85-3.591-1.37-7.189-4.97-8.037-3.59-.847-7.18 1.376-8.03 4.966a6.67 6.67 0 0 0 4.96 8.032 6.68 6.68 0 0 0 8.04-4.961zm27.02 3.124a6.68 6.68 0 0 0 0-9.447c-2.61-2.609-6.84-2.609-9.45 0a6.68 6.68 0 0 0 0 9.447 6.69 6.69 0 0 0 9.45 0zm30.66-3.136c.85-3.59-1.38-7.189-4.97-8.036a6.678 6.678 0 1 0-3.07 12.999c3.59.85 7.19-1.372 8.04-4.963zm27.02 3.126a6.68 6.68 0 0 0 0-9.448c-2.61-2.609-6.84-2.608-9.45 0a6.68 6.68 0 0 0 0 9.448 6.69 6.69 0 0 0 9.45 0zm30.65-3.138c.85-3.591-1.37-7.189-4.96-8.036s-7.19 1.375-8.04 4.966 1.38 7.185 4.97 8.035a6.67 6.67 0 0 0 8.03-4.965zm27.03 3.128a6.68 6.68 0 0 0 0-9.448c-2.61-2.609-6.84-2.608-9.45 0a6.7 6.7 0 0 0 0 9.448 6.69 6.69 0 0 0 9.45 0zm30.63-3.052c.85-3.59-1.37-7.188-4.96-8.036a6.682 6.682 0 1 0-3.08 13.005 6.68 6.68 0 0 0 8.04-4.969zm27.05 3.041a6.68 6.68 0 0 0 0-9.447c-2.61-2.609-6.84-2.609-9.44 0a6.68 6.68 0 0 0 0 9.447c2.6 2.608 6.83 2.608 9.44 0zm-259.557 28.828c2.609-2.61 2.609-6.84 0-9.45a6.68 6.68 0 0 0-9.448 0c-2.608 2.61-2.608 6.84 0 9.45a6.7 6.7 0 0 0 9.448 0zm30.764-3.69a6.68 6.68 0 0 0-5.524-7.66c-3.642-.59-7.074 1.88-7.665 5.52-.591 3.65 1.882 7.08 5.524 7.67a6.68 6.68 0 0 0 7.665-5.53zm26.913 3.68c2.61-2.61 2.61-6.84 0-9.45a6.67 6.67 0 0 0-9.44 0c-2.61 2.61-2.61 6.84 0 9.45a6.69 6.69 0 0 0 9.44 0zm30.61-3.04a6.68 6.68 0 0 0-4.96-8.04c-3.59-.85-7.19 1.38-8.04 4.97s1.38 7.19 4.97 8.03c3.59.85 7.19-1.37 8.03-4.96zm27.08 3.02a6.69 6.69 0 0 0 0-9.44c-2.61-2.61-6.84-2.61-9.45 0a6.67 6.67 0 0 0 0 9.44c2.61 2.61 6.84 2.61 9.45 0zm30.6-3.03c.85-3.59-1.38-7.19-4.97-8.04s-7.18 1.38-8.03 4.97 1.37 7.19 4.96 8.03a6.68 6.68 0 0 0 8.04-4.96zm27.08 3.02a6.67 6.67 0 0 0 0-9.44c-2.61-2.61-6.84-2.61-9.45 0a6.67 6.67 0 0 0 0 9.44c2.61 2.61 6.84 2.61 9.45 0zm30.6-3.04c.85-3.59-1.38-7.18-4.97-8.03a6.68 6.68 0 0 0-8.04 4.96 6.69 6.69 0 0 0 4.97 8.04 6.68 6.68 0 0 0 8.04-4.97z" class="B"/><use xlink:href="#I" class="B"/><path d="M1220.14 1025c.85-3.59-1.37-7.19-4.96-8.03a6.68 6.68 0 0 0-8.04 4.96c-.85 3.59 1.38 7.19 4.97 8.04s7.19-1.38 8.03-4.97z" class="B"/><use xlink:href="#J" class="B"/><use xlink:href="#J" x="28.888" class="B"/><use xlink:href="#K" class="B"/><use xlink:href="#L" class="B"/><use xlink:href="#K" x="57.68" class="B"/><use xlink:href="#K" x="86.48" class="B"/><use xlink:href="#K" x="115.37" class="B"/><use xlink:href="#K" x="144.17" class="B"/><use xlink:href="#L" x="144.17" class="B"/><use xlink:href="#K" x="201.85" class="B"/><path d="M958.833 1085.77c2.609-2.61 2.609-6.84 0-9.45a6.68 6.68 0 0 0-9.447 0c-2.609 2.61-2.609 6.84 0 9.45a6.68 6.68 0 0 0 9.447 0zm30.769-3.69a6.69 6.69 0 0 0-5.524-7.67 6.69 6.69 0 0 0-7.664 5.53 6.68 6.68 0 1 0 13.188 2.14z" class="B"/><use xlink:href="#I" x="-172.97" y="57.65" class="B"/><path d="M1047.12 1082.72a6.68 6.68 0 0 0-4.96-8.04c-3.59-.85-7.19 1.38-8.04 4.97s1.38 7.18 4.97 8.03 7.19-1.37 8.03-4.96zm27.08 3.03a6.7 6.7 0 0 0 0-9.45c-2.61-2.61-6.84-2.61-9.45 0s-2.61 6.84 0 9.45 6.84 2.61 9.45 0zm30.6-3.05a6.67 6.67 0 0 0-4.96-8.03 6.68 6.68 0 0 0-8.04 4.96 6.68 6.68 0 0 0 4.97 8.04c3.59.85 7.18-1.38 8.03-4.97zm27.08 3.04c2.61-2.61 2.61-6.84 0-9.45s-6.84-2.61-9.45 0-2.61 6.84 0 9.45a6.7 6.7 0 0 0 9.45 0zm30.6-3.05c.85-3.59-1.38-7.19-4.97-8.03-3.59-.85-7.19 1.37-8.03 4.96a6.68 6.68 0 0 0 4.96 8.04c3.59.85 7.19-1.38 8.04-4.97z" class="B"/><use xlink:href="#I" x="0.01" y="57.68" class="B"/><path d="M1220.16 1082.68c.84-3.59-1.38-7.19-4.97-8.04-3.59-.84-7.19 1.38-8.04 4.97-.84 3.59 1.38 7.19 4.97 8.04 3.59.84 7.19-1.38 8.04-4.97z" class="B"/><path d="M77.547 19.754H46.943v8.396h30.603v-8.396z" class="H"/><path d="M66.461 39.179V8.576h-8.396v30.603h8.396z" class="H"/><path d="M77.547 76.357H46.943v8.396h30.603v-8.396z" class="F"/><path d="M66.443 65.253h-8.396v30.603h8.396V65.253z" class="F"/><path d="M77.547 133.05H46.943v8.396h30.603v-8.396z" class="B"/><path d="M66.543 152.557v-30.604h-8.396v30.604h8.396z" class="B"/><path d="M891.68 24.069l-5.936 5.936 21.64 21.64 5.936-5.937-21.64-21.64z" class="F"/><path d="M907.384 24.069l-21.64 21.64 5.936 5.937 21.64-21.64-5.936-5.936z" class="F"/><path d="M873.258 85.794l-21.64-21.64-5.936 5.936 21.639 21.64 5.937-5.937z" class="B"/><path d="M851.613 91.753l21.64-21.64-5.937-5.936-21.639 21.64 5.936 5.937zm148.034-46.058l-21.64-21.64-5.936 5.937 21.639 21.64 5.937-5.937z" class="B"/><path d="M978.034 51.651l21.639-21.64-5.936-5.937-21.64 21.64 5.937 5.937z" class="B"/><path d="M937.904 64.163l-5.937 5.936 21.64 21.64 5.936-5.937-21.639-21.64z" class="G"/><path d="M953.607 64.163l-21.64 21.64 5.937 5.936 21.639-21.64-5.936-5.936z" class="G"/><path d="M77.547 189.743H46.943v8.396h30.603v-8.396z" class="B"/><path d="M66.538 209.245v-30.603h-8.396v30.603h8.396zm1475.882 54.776v-26.993h-7.4v26.993h7.4z" class="B"/><path d="M1525.2 254.158h26.99v-7.403h-26.99v7.403z" class="B"/><path d="M1492.51 264.013v-26.992h-7.4v26.992h7.4z" class="E"/><path d="M1475.29 254.158h27v-7.403h-27v7.403z" class="E"/><path d="M878.11 693.029H570.36v7.402h307.75v-7.402zm0 18.055H570.36v7.402h307.75v-7.402z" class="B"/><use xlink:href="#M" class="B"/><use xlink:href="#M" y="18.055" class="B"/><use xlink:href="#M" y="36.11" class="B"/><use xlink:href="#M" y="54.165" class="B"/><use xlink:href="#M" y="72.22" class="B"/><path d="M878.11 819.505H570.36v7.402h307.75v-7.402zm0 18.055H570.36v7.402h307.75v-7.402z" class="B"/><path d="M561.163 918.093c4.548-4.548 4.548-11.921 0-16.469s-11.922-4.548-16.469 0-4.548 11.921 0 16.469 11.921 4.548 16.469 0z" class="E"/><path d="M742.064 975.23c0 1.354-1.083 2.528-2.527 2.528-1.354 0-2.528-1.083-2.528-2.528 0-1.354 1.083-2.528 2.528-2.528 1.444.091 2.527 1.174 2.527 2.528zm25.278 0c0 1.354-1.084 2.528-2.528 2.528-1.354 0-2.528-1.084-2.528-2.528 0-1.354 1.083-2.528 2.528-2.528 1.444.09 2.528 1.174 2.528 2.528zm25.277 0c0 1.354-1.084 2.528-2.528 2.528-1.354 0-2.528-1.084-2.528-2.528 0-1.354 1.084-2.528 2.528-2.528 1.444.09 2.528 1.174 2.528 2.528z" class="B"/><path d="M552.937 1041.76c6.432 0 11.646-5.21 11.646-11.64s-5.214-11.65-11.646-11.65-11.645 5.22-11.645 11.65 5.214 11.64 11.645 11.64z" class="H"/><path d="M1311.25 735.368c6.73 0 12.19-5.456 12.19-12.187s-5.46-12.187-12.19-12.187-12.19 5.456-12.19 12.187 5.46 12.187 12.19 12.187z" class="F"/><path d="M1323.3 675.932c1.08-6.644-3.43-12.905-10.08-13.983a12.19 12.19 0 0 0-13.98 10.078c-1.08 6.644 3.44 12.904 10.08 13.982a12.19 12.19 0 0 0 13.98-10.077zm-7.34-39.903c6.22-2.576 9.17-9.705 6.6-15.924a12.2 12.2 0 0 0-15.93-6.595c-6.22 2.576-9.17 9.705-6.59 15.924 2.57 6.218 9.7 9.171 15.92 6.595z" class="B"/><path d="M1559.42 1058.37h-27.17v27.18h27.17v-27.18zm0-68.154h-27.17v27.174h27.17v-27.174z" class="H"/><path d="M1559.42 921.968h-27.17v27.172h27.17v-27.172z" class="E"/><path d="M166.017 57.941h-8.667v8.666h8.667v-8.666z" class="B"/><use xlink:href="#N" class="B"/><use xlink:href="#N" x="31.416" class="B"/><use xlink:href="#N" x="62.832" class="B"/><path d="M166.017 89.357h-8.667v8.666h8.667v-8.666z" class="B"/><use xlink:href="#N" y="31.416" class="B"/><use xlink:href="#N" x="31.416" y="31.416" class="B"/><use xlink:href="#N" x="62.832" y="31.416" class="B"/><path d="M166.017 120.772h-8.667v8.667h8.667v-8.667zm31.415 0h-8.666v8.667h8.666v-8.667zm31.416 0h-8.666v8.667h8.666v-8.667zm31.416 0h-8.666v8.667h8.666v-8.667z" class="B"/><path d="M576.048 189.743l-27.354-15.798v31.506l27.354-15.708zm-4.063 0l-21.124 12.187v-24.465l21.124 12.278z" class="G"/><path d="M622.811 189.743l-27.354-15.798v31.506l27.354-15.708zm-4.153 0l-21.125 12.187v-24.465l21.125 12.278z" class="B"/><path d="M669.483 189.743l-27.353-15.798v31.506l27.353-15.708zm-4.062 0l-21.125 12.187v-24.465l21.125 12.278z" class="G"/><path d="M716.246 189.743l-27.354-15.798v31.506l27.354-15.708zm-4.153 0l-21.124 12.187v-24.465l21.124 12.278z" class="B"/><path d="M789.64 1035.8l-27.354-15.79v31.5l27.354-15.71zm-4.063 0l-21.124 12.19v-24.46l21.124 12.27z" class="G"/><path d="M836.402 1035.8l-27.353-15.79v31.5l27.353-15.71zm-4.152 0l-21.125 12.19v-24.46l21.125 12.27zm50.825 0l-27.354-15.79v31.5l27.354-15.71zm-4.063 0l-21.124 12.19v-24.46l21.124 12.27zm50.825 0l-27.353-15.79v31.5l27.353-15.71zm-4.152 0l-21.125 12.19v-24.46l21.125 12.27zm311.635-902.028l-13.46 23.382h27l-13.54-23.382zm0 3.521l10.47 18.055h-20.95l10.48-18.055z" class="B"/><path d="M1237.32 93.87l-13.46 23.382h27l-13.54-23.382zm0 3.521l10.47 18.055h-20.95l10.48-18.055z" class="F"/><path d="M1237.32 53.878l-13.46 23.381h27l-13.54-23.381zm0 3.521l10.47 18.055h-20.95l10.48-18.055z" class="B"/><path d="M1237.32 13.977l-13.46 23.381h27l-13.54-23.381zm0 3.521l10.47 18.055h-20.95l10.48-18.055z" class="E"/><path d="M107.879 709.278c10.201-10.201 21.395-18.777 33.312-25.638l-58.95 58.95c6.861-11.916 15.437-23.201 25.638-33.312zm64.547-39.54c8.937-2.889 17.965-4.875 27.173-6.139L62.2 800.998c1.264-9.208 3.34-18.326 6.139-27.173l104.087-104.087zm66.262-6.771l-177.12 177.12c-.722-6.68-.993-13.451-.903-20.131l157.802-157.801a150.87 150.87 0 0 1 20.221.812zm15.076 2.347a181.36 181.36 0 0 1 16.701 4.334L68.248 871.865c-1.715-5.507-3.16-11.104-4.333-16.701l189.849-189.85zm29.43 8.937c4.875 1.987 9.569 4.243 14.264 6.771L79.623 898.857a157.49 157.49 0 0 1-6.771-14.264l210.342-210.342zm25.277 13.181c4.243 2.708 8.306 5.597 12.278 8.757L94.789 922.148c-3.16-3.972-6.048-8.125-8.757-12.277l222.439-222.439zm27.083 21.847l5.146 5.416-227.495 227.494-5.416-5.145-5.146-5.417 227.494-227.494a72.77 72.77 0 0 1 5.417 5.146zm13.09 14.714c3.16 3.973 6.048 8.125 8.757 12.278L134.962 958.71c-4.243-2.709-8.306-5.597-12.278-8.757l225.96-225.96zm15.166 23.291c2.528 4.695 4.785 9.479 6.771 14.264L160.239 971.89c-4.875-1.986-9.569-4.243-14.264-6.771L363.81 747.284zm11.375 27.083a181.76 181.76 0 0 1 4.333 16.701L189.669 980.917c-5.597-1.173-11.194-2.618-16.701-4.333l202.217-202.217zm7.493 51.909L224.876 984.077c-6.77.09-13.451-.18-20.131-.903l177.12-177.03c.632 6.681.993 13.451.813 20.132zm-1.445 18.867c-1.264 9.208-3.34 18.326-6.138 27.173L271.097 976.313c-8.937 2.889-18.055 4.875-27.173 6.139l137.309-137.309zm-45.679 91.81c-10.201 10.201-21.395 18.778-33.312 25.639l58.95-58.95c-6.861 11.916-15.437 23.11-25.638 33.311z" fill="#ccc8c7"/><path d="M1823.23 563.844l-76.53 76.537 1.59 1.596 76.54-76.537-1.6-1.596zm-115.56 115.561l-83.55 83.559 1.59 1.596 83.56-83.559-1.6-1.596zm-122.54 122.601l-35.42 35.428 1.59 1.596 35.43-35.428-1.6-1.596zm30.54-30.601l-22.08 22.086 1.59 1.596 22.09-22.086-1.6-1.596zm217.7-214.461l35.43-35.428-1.59-1.596-35.43 35.428 1.59 1.596zm-115.58 115.588l22.08-22.087-1.59-1.596-22.09 22.087 1.6 1.596z" class="C"/><use xlink:href="#O" class="C"/><path d="M1583.57 786.137l35.42-35.427-1.59-1.596-35.43 35.428 1.6 1.595zm251.51-251.517l35.43-35.428-1.6-1.595-35.43 35.427 1.6 1.596zm-282.12 282.061l22.09-22.086-1.59-1.596-22.09 22.086 1.59 1.596zm159.45-159.452l83.56-83.558-1.6-1.596-83.56 83.558 1.6 1.596zm92.06-92.071l22.09-22.086-1.59-1.596-22.09 22.086 1.59 1.596zm-44 2.876l76.54-76.537-1.6-1.596-76.54 76.537 1.6 1.596zm-10.07 6.849l-35.42 35.427 1.59 1.596 35.43-35.428-1.6-1.595zm115.53-115.526l-22.08 22.087 1.59 1.595 22.09-22.086-1.6-1.596z" class="C"/><use xlink:href="#O" x="-118.51" y="77.319" class="C"/><path d="M1624.52 703.997l83.56-83.559-1.6-1.595-83.56 83.558 1.6 1.596z" class="C"/><use xlink:href="#P" class="C"/><path d="M1751.9 593.966l-76.54 76.537 1.6 1.595 76.53-76.536-1.59-1.596zm166.5-166.436l-83.55 83.558 1.59 1.596 83.56-83.558-1.6-1.596z" class="C"/><use xlink:href="#Q" class="C"/><path d="M1544.23 801.633l-35.43 35.428 1.59 1.595 35.43-35.427-1.59-1.596zm282.17-282.104l-22.09 22.087 1.6 1.596 22.09-22.087-1.6-1.596zm-159.51 159.503l-83.56 83.559 1.6 1.596 83.56-83.559-1.6-1.596zm-92 91.996l-22.09 22.087 1.6 1.596 22.08-22.087-1.59-1.596zm83.83-121.873l76.53-76.537-1.59-1.596-76.54 76.537 1.6 1.596z" class="C"/><use xlink:href="#R" class="C"/><use xlink:href="#Q" x="-147.12" y="105.973" class="C"/><path d="M1764.21 540.506l-22.09 22.086 1.59 1.596 22.09-22.086-1.59-1.596zm-241.44 244.612l83.55-83.558-1.59-1.596-83.56 83.558 1.6 1.596zm246.76-270.524l-76.54 76.537 1.6 1.596 76.54-76.537-1.6-1.596zm-251.59 251.574l-83.56 83.558 1.6 1.596 83.55-83.558-1.59-1.596z" class="C"/><use xlink:href="#Q" x="17.57" y="-79.305" class="C"/><path d="M1561.86 722.259l-35.43 35.428 1.6 1.596 35.42-35.428-1.59-1.596zm282.11-282.165l-22.09 22.087 1.6 1.596 22.09-22.087-1.6-1.596zm-159.51 159.503l-83.56 83.559 1.6 1.596 83.56-83.559-1.6-1.596zm-92 91.996l-22.09 22.087 1.6 1.596 22.08-22.087-1.59-1.596zm2.8-44.008l-76.53 76.537 1.59 1.596 76.54-76.537-1.6-1.596zm10.16-6.864l35.42-35.428-1.59-1.596-35.43 35.428 1.6 1.596z" class="C"/><use xlink:href="#S" class="C"/><path d="M1846.78 396.083l-76.54 76.536 1.59 1.596 76.54-76.537-1.59-1.595zm-115.56 115.562l-83.56 83.558 1.59 1.596 83.56-83.558-1.59-1.596zm10.12-6.858l22.09-22.087-1.6-1.596-22.09 22.087 1.6 1.596zm-116.88 137.488l76.54-76.537-1.6-1.596-76.54 76.537 1.6 1.596zm-166.51 166.449l83.56-83.558-1.59-1.596-83.56 83.558 1.59 1.596z" class="C"/><use xlink:href="#T" class="C"/><path d="M1549.96 716.717l22.08-22.087-1.59-1.595-22.09 22.086 1.6 1.596zm159.5-159.512l83.56-83.559-1.59-1.596-83.56 83.559 1.59 1.596zm92.01-92.008l22.08-22.086-1.59-1.596-22.09 22.087 1.6 1.595zm-60.6 16.18l-76.54 76.537 1.6 1.596 76.54-76.537-1.6-1.596zm-115.62 115.625l-83.56 83.559 1.59 1.595 83.56-83.558-1.59-1.596zm-122.54 122.601l-35.43 35.427 1.59 1.596 35.43-35.428-1.59-1.595z" class="C"/><use xlink:href="#U" class="C"/><path d="M1750.99 474.54l35.43-35.428-1.59-1.595-35.43 35.427 1.59 1.596zm-115.58 115.588l22.08-22.087-1.59-1.596-22.09 22.087 1.6 1.596zm241.35-244.629l-83.56 83.559 1.6 1.596 83.55-83.559-1.59-1.596zm-331.74 314.395l76.54-76.536-1.6-1.596-76.53 76.537 1.59 1.595zm-43.83 43.84l35.42-35.428-1.59-1.596-35.43 35.428 1.6 1.596z" class="C"/><use xlink:href="#T" x="172.14" y="-233.96" class="C"/><use xlink:href="#S" x="-19.24" y="-22.029" class="C"/><path d="M1630.03 574.825l83.56-83.558-1.6-1.596-83.56 83.558 1.6 1.596zm92.07-92.07l22.08-22.087-1.59-1.596-22.09 22.087 1.6 1.596zm-44.01 2.875l76.54-76.536-1.6-1.596-76.54 76.537 1.6 1.595z" class="C"/><use xlink:href="#V" class="C"/><use xlink:href="#U" x="250.26" y="-312.048" class="C"/><path d="M1426.58 737.15l76.53-76.537-1.59-1.596-76.54 76.537 1.6 1.596z" class="C"/><use xlink:href="#R" x="-232.14" y="87.995" class="C"/><use xlink:href="#P" x="-82.43" y="-82.407" class="C"/><path d="M1669.53 511.626L1593 588.163l1.59 1.595 76.54-76.536-1.6-1.596zm166.45-166.5l-83.56 83.559 1.59 1.595 83.56-83.558-1.59-1.596z" class="C"/><use xlink:href="#V" x="45.46" y="-24.755" class="C"/><use xlink:href="#V" x="-206.05" y="226.75" class="C"/><use xlink:href="#U" x="210.73" y="-251.876" class="C"/><path d="M1584.47 596.629l-83.56 83.558 1.59 1.596 83.56-83.558-1.59-1.596z" class="C"/><use xlink:href="#P" x="-121.96" y="-22.235" class="C"/><path d="M1576.34 566.751l76.54-76.537-1.6-1.595-76.54 76.536 1.6 1.596zm115.56-115.556l83.56-83.558-1.6-1.596-83.56 83.558 1.6 1.596zm-125.65 122.439l-35.42 35.427 1.59 1.596 35.43-35.428-1.6-1.595zm115.53-115.532l-22.09 22.087 1.6 1.596 22.08-22.087-1.59-1.596z" class="C"/><use xlink:href="#R" x="-333.89" y="169.116" class="C"/><path d="M1687.1 432.191l-76.53 76.537 1.59 1.596 76.54-76.537-1.6-1.596zM1435.57 683.7l-83.55 83.559 1.59 1.596 83.56-83.559-1.6-1.596z" class="C"/><use xlink:href="#V" x="63.03" y="-104.188" class="C"/><path d="M1479.49 639.792l-35.42 35.428 1.59 1.596 35.43-35.428-1.6-1.596z" class="C"/><use xlink:href="#U" x="228.3" y="-331.311" class="C"/><path d="M1602.1 517.258l-83.56 83.558 1.6 1.596 83.55-83.559-1.59-1.595zm-92.01 91.996l-22.08 22.087 1.59 1.595 22.09-22.086-1.6-1.596zm2.81-44.009l-76.54 76.537 1.6 1.596 76.54-76.537-1.6-1.596zm10.01-6.928l35.43-35.428-1.6-1.595-35.43 35.427 1.6 1.596zm-115.53 115.518l22.09-22.086-1.6-1.596-22.08 22.087 1.59 1.595zm357.03-360.092l-76.54 76.537 1.6 1.595 76.54-76.536-1.6-1.596zm-115.56 115.562l-83.56 83.559 1.6 1.595 83.56-83.558-1.6-1.596zm10.11-6.922l22.09-22.087-1.6-1.595-22.09 22.086 1.6 1.596z" class="C"/><use xlink:href="#O" x="-85.45" y="-182.427" class="C"/><path d="M1375.57 726.32l83.56-83.558-1.59-1.596-83.56 83.559 1.59 1.595zm122.55-122.61l35.42-35.428-1.59-1.596-35.43 35.428 1.6 1.596z" class="C"/><use xlink:href="#S" x="-22.25" y="-121.993" class="C"/><path d="M1627.09 474.801l83.55-83.558-1.59-1.596-83.56 83.558 1.6 1.596zm92-92.007l22.09-22.087-1.6-1.595-22.09 22.086 1.6 1.596zm-184.01 142.755l76.54-76.537-1.59-1.596-76.54 76.537 1.59 1.596z" class="C"/><use xlink:href="#R" x="-123.57" y="-123.669" class="C"/><path d="M1525.04 532.496l-35.43 35.427 1.6 1.596 35.43-35.428-1.6-1.595zm115.59-115.595l-22.09 22.086 1.6 1.596 22.08-22.086-1.59-1.596zM1399.2 661.449l83.56-83.559-1.6-1.596-83.56 83.559 1.6 1.596zm137.96-161.723l-76.54 76.537 1.59 1.596 76.54-76.537-1.59-1.596zm166.5-166.436l-83.56 83.558 1.6 1.596 83.56-83.559-1.6-1.595z" class="C"/><use xlink:href="#V" x="-86.92" y="-36.655" class="C"/><path d="M1611.66 425.286l-22.09 22.086 1.6 1.596 22.08-22.086-1.59-1.596zm-159.51 159.506l-83.56 83.559 1.6 1.595 83.56-83.558-1.6-1.596zm19.54-60.812l-76.54 76.537 1.6 1.595 76.53-76.536-1.59-1.596zm10.09-6.865l35.43-35.427-1.6-1.596-35.42 35.428 1.59 1.595zm-115.59 115.579l22.09-22.086-1.6-1.596-22.08 22.087 1.59 1.595z" class="C"/><use xlink:href="#W" class="C"/><path d="M1607.57 388.103l-83.55 83.559 1.59 1.595 83.56-83.558-1.6-1.596zm10.13-6.928l22.09-22.086-1.6-1.596-22.08 22.086 1.59 1.596z" class="C"/><use xlink:href="#O" x="-126.64" y="-223.564" class="C"/><path d="M1334.32 685.119l83.56-83.559-1.6-1.596-83.55 83.559 1.59 1.596z" class="C"/><use xlink:href="#T" x="-123.57" y="-123.669" class="C"/><path d="M1426.32 593.112l22.09-22.087-1.6-1.596-22.08 22.087 1.59 1.596zm159.51-159.513l83.56-83.558-1.6-1.596-83.55 83.558 1.59 1.596z" class="C"/><use xlink:href="#S" x="188.01" y="-414.714" class="C"/><use xlink:href="#W" x="-62.92" y="42.331" class="C"/><path d="M1544.66 430.432l-83.56 83.559 1.59 1.596 83.56-83.559-1.59-1.596zm-122.55 122.6l-35.42 35.428 1.59 1.596 35.43-35.428-1.6-1.596zm30.54-30.6l-22.08 22.086 1.59 1.596 22.09-22.086-1.6-1.596z" class="C"/><use xlink:href="#T" x="89.79" y="-378.249" class="C"/><path d="M1554.76 423.515l22.09-22.087-1.6-1.595-22.08 22.086 1.59 1.596zm-90.38 69.767l76.53-76.537-1.59-1.595-76.54 76.536 1.6 1.596zm-43.84 43.839l35.43-35.427-1.6-1.596-35.43 35.428 1.6 1.595zM1390 567.728l22.09-22.086-1.6-1.596-22.08 22.086 1.59 1.596zm159.45-159.451l83.55-83.559-1.59-1.595-83.56 83.558 1.6 1.596zm92.06-92.071l22.09-22.087-1.6-1.595-22.08 22.086 1.59 1.596zm-87.05 45.819l76.53-76.537-1.59-1.595-76.54 76.536 1.6 1.596zm-10.06 6.853l-35.43 35.428 1.6 1.595 35.43-35.427-1.6-1.596zm-125.9 129.11l83.56-83.558-1.59-1.596-83.56 83.558 1.59 1.596z" class="C"/><use xlink:href="#U" x="-124.83" y="-184.154" class="C"/><use xlink:href="#W" x="-134.32" y="72.516" class="C"/><path d="M1632.78 301.091l-35.43 35.428 1.6 1.595 35.43-35.427-1.6-1.596zm-128.91 128.968l-83.56 83.558 1.6 1.596 83.56-83.558-1.6-1.596zm-92 92l-22.09 22.086 1.6 1.596 22.09-22.087-1.6-1.595zm40.84-78.914l76.53-76.537-1.59-1.595-76.54 76.536 1.6 1.596zm115.56-115.555l83.55-83.559-1.59-1.596-83.56 83.559 1.6 1.596z" class="C"/><use xlink:href="#V" x="-225.3" y="-42.451" class="C"/><use xlink:href="#P" x="-56.22" y="-376.363" class="C"/><path d="M1316.75 579.109l83.56-83.558-1.59-1.596-83.56 83.558 1.59 1.596zm246.78-270.524l-76.54 76.537 1.59 1.596 76.54-76.537-1.59-1.596z" class="C"/><use xlink:href="#Q" x="-188.44" y="-285.318" class="C"/><path d="M1478.46 393.589l-83.56 83.558 1.59 1.596 83.56-83.559-1.59-1.595zm-92.01 92.002l-22.08 22.086 1.59 1.596 22.09-22.086-1.6-1.596z" class="C"/><use xlink:href="#W" x="-333.94" y="169.1" class="C"/><path d="M1399.4 434.712l35.43-35.428-1.59-1.596-35.43 35.428 1.59 1.596zm125.81-129.076l-83.56 83.558 1.6 1.596 83.56-83.558-1.6-1.596zm-106.76 130.63l76.54-76.537-1.6-1.596-76.54 76.537 1.6 1.596zm-43.9 43.902l35.42-35.428-1.59-1.595-35.43 35.427 1.6 1.596zm128.9-128.972l83.56-83.559-1.59-1.596-83.56 83.559 1.59 1.596z" class="C"/><use xlink:href="#X" class="E"/><use xlink:href="#X" x="24.375" class="E"/><path d="M343.859 344.836c2.044 0 3.702-1.657 3.702-3.701s-1.658-3.701-3.702-3.701a3.7 3.7 0 1 0 0 7.402z" class="E"/><use xlink:href="#X" x="73.214" class="E"/><path d="M295.11 366.051a3.7 3.7 0 0 0 3.702-3.701c0-2.044-1.657-3.702-3.702-3.702s-3.701 1.658-3.701 3.702a3.7 3.7 0 0 0 3.701 3.701z" class="E"/><use xlink:href="#Y" class="E"/><path d="M343.859 366.051c2.044 0 3.702-1.657 3.702-3.701s-1.658-3.702-3.702-3.702-3.701 1.658-3.701 3.702a3.7 3.7 0 0 0 3.701 3.701z" class="E"/><use xlink:href="#Y" x="48.839" class="E"/><path d="M295.11 387.176c2.045 0 3.702-1.658 3.702-3.702a3.7 3.7 0 0 0-7.403 0c0 2.044 1.657 3.702 3.701 3.702z" class="E"/><use xlink:href="#Z" class="E"/><path d="M343.859 387.176c2.044 0 3.702-1.658 3.702-3.702s-1.658-3.701-3.702-3.701a3.7 3.7 0 0 0-3.701 3.701c0 2.044 1.657 3.702 3.701 3.702z" class="E"/><use xlink:href="#Z" x="48.839" class="E"/><path d="M295.11 408.3a3.702 3.702 0 1 0 0-7.403 3.702 3.702 0 0 0 0 7.403zm24.375 0a3.702 3.702 0 0 0 0-7.403 3.702 3.702 0 0 0 0 7.403zm24.374 0c2.044 0 3.702-1.657 3.702-3.701s-1.658-3.702-3.702-3.702a3.702 3.702 0 0 0 0 7.403zm24.465 0a3.702 3.702 0 0 0 0-7.403 3.702 3.702 0 0 0 0 7.403z" class="E"/><path d="M1310.8 1021.99a3.7 3.7 0 0 0 3.7-3.7c0-2.04-1.66-3.7-3.7-3.7s-3.7 1.66-3.7 3.7a3.7 3.7 0 0 0 3.7 3.7zm24.37 0a3.7 3.7 0 0 0 3.71-3.7c0-2.04-1.66-3.7-3.71-3.7-2.04 0-3.7 1.66-3.7 3.7a3.7 3.7 0 0 0 3.7 3.7zm24.38 0a3.7 3.7 0 0 0 3.7-3.7c0-2.04-1.66-3.7-3.7-3.7a3.7 3.7 0 0 0-3.7 3.7 3.69 3.69 0 0 0 3.7 3.7zm24.37 0a3.69 3.69 0 0 0 3.7-3.7 3.7 3.7 0 0 0-3.7-3.7c-2.04 0-3.7 1.66-3.7 3.7a3.7 3.7 0 0 0 3.7 3.7z" class="D"/><use xlink:href="#a" class="D"/><use xlink:href="#b" class="D"/><path d="M1359.55 1043.21c2.04 0 3.7-1.66 3.7-3.7 0-2.05-1.66-3.71-3.7-3.71a3.705 3.705 0 1 0 0 7.41zm24.37 0a3.705 3.705 0 1 0 0-7.41c-2.04 0-3.7 1.66-3.7 3.71 0 2.04 1.66 3.7 3.7 3.7zm-73.12 21.12c2.04 0 3.7-1.66 3.7-3.7s-1.66-3.7-3.7-3.7-3.7 1.66-3.7 3.7 1.66 3.7 3.7 3.7zm24.37 0c2.05 0 3.71-1.66 3.71-3.7s-1.66-3.7-3.71-3.7c-2.04 0-3.7 1.66-3.7 3.7s1.66 3.7 3.7 3.7zm24.38 0c2.04 0 3.7-1.66 3.7-3.7s-1.66-3.7-3.7-3.7a3.7 3.7 0 0 0 0 7.4zm24.37 0a3.7 3.7 0 0 0 0-7.4c-2.04 0-3.7 1.66-3.7 3.7s1.66 3.7 3.7 3.7z" class="D"/><use xlink:href="#a" y="42.34" class="D"/><use xlink:href="#b" y="42.34" class="D"/><path d="M1359.55 1085.55c2.04 0 3.7-1.66 3.7-3.7 0-2.05-1.66-3.71-3.7-3.71a3.705 3.705 0 1 0 0 7.41zm24.37 0a3.705 3.705 0 1 0 0-7.41c-2.04 0-3.7 1.66-3.7 3.71 0 2.04 1.66 3.7 3.7 3.7zm26.72-178.027c2.05 0 3.71-1.657 3.71-3.701s-1.66-3.701-3.71-3.701c-2.04 0-3.7 1.657-3.7 3.701s1.66 3.701 3.7 3.701z" class="D"/><use xlink:href="#c" class="D"/><path d="M1463.19 903.822c0 2.076-1.72 3.701-3.71 3.701-1.98 0-3.7-1.715-3.7-3.701 0-2.076 1.72-3.701 3.7-3.701 1.99 0 3.71 1.625 3.71 3.701z" class="D"/><use xlink:href="#c" x="48.84" class="D"/><path d="M1410.64 928.648c2.05 0 3.71-1.657 3.71-3.701s-1.66-3.702-3.71-3.702c-2.04 0-3.7 1.657-3.7 3.702s1.66 3.701 3.7 3.701z" class="D"/><use xlink:href="#d" class="D"/><use xlink:href="#e" class="D"/><use xlink:href="#d" x="48.84" class="D"/><path d="M1410.64 949.863c2.05 0 3.71-1.658 3.71-3.702s-1.66-3.701-3.71-3.701c-2.04 0-3.7 1.657-3.7 3.701s1.66 3.702 3.7 3.702z" class="D"/><use xlink:href="#f" class="D"/><path d="M1463.19 946.161c0 2.077-1.72 3.702-3.71 3.702-1.98 0-3.7-1.716-3.7-3.702s1.72-3.701 3.7-3.701c1.99 0 3.71 1.625 3.71 3.701z" class="D"/><use xlink:href="#f" x="48.84" class="D"/><path d="M1410.64 970.987c2.05 0 3.71-1.657 3.71-3.701s-1.66-3.702-3.71-3.702c-2.04 0-3.7 1.658-3.7 3.702s1.66 3.701 3.7 3.701z" class="D"/><use xlink:href="#g" class="D"/><use xlink:href="#e" y="42.339" class="D"/><use xlink:href="#g" x="48.84" class="D"/><path d="M466.31 17.336L341.068-107.906l-3.702 3.703L462.608 21.038l3.702-3.702zm-.024 17.413L341.045-90.493l-3.703 3.702L462.584 38.452l3.702-3.702zm.041 17.35L341.085-73.143l-3.703 3.702L462.624 55.801l3.703-3.702zm-.024 17.413L341.061-55.73l-3.702 3.702L462.6 73.214l3.703-3.702zm-.024 17.413L341.037-38.317l-3.702 3.702L462.577 90.627l3.702-3.702zm.04 17.349L341.077-20.967l-3.702 3.702 125.242 125.242 3.702-3.703zm-.024 17.413L341.053-3.554 337.351.148 462.593 125.39l3.702-3.703zm-.023 17.414L341.03 13.859l-3.703 3.702 125.242 125.242 3.703-3.702zm.04 17.349L341.07 31.208l-3.703 3.702 125.242 125.242 3.703-3.702zm-.024 17.413L341.046 48.621l-3.702 3.702 125.242 125.242 3.702-3.702zm.04 17.349L341.086 65.971l-3.702 3.702 125.242 125.242 3.702-3.703z" class="C"/><path d="M1211.42 594.851V417.73h-5.24v177.121h5.24zm-12.28 12.315V430.045h-5.23v177.121h5.23zm-12.27 12.315V442.36h-5.24v177.121h5.24zm-12.28 12.315V454.675h-5.24v177.121h5.24zm-12.28 12.224V466.9h-5.24v177.12h5.24zm-12.37 12.315V479.214h-5.23v177.121h5.23zm-12.27 12.315V491.529h-5.24V668.65h5.24zm-12.28 12.315V503.844h-5.24v177.121h5.24zm-12.28 12.315V516.159h-5.24V693.28h5.24zm-12.28 12.224v-177.12h-5.23v177.12h5.23zm-12.36 12.315V540.698h-5.24v177.121h5.24z" class="F"/><path d="M998.627 359.371v6.138l-12.909-16.34-12.909 16.34-13-16.34-12.909 16.34-13-16.34-12.91 16.34-12.909-16.34-13 16.34-12.909-16.34-12.909 16.34v-6.138l12.909-16.34 12.909 16.34 13-16.34 12.909 16.34 12.91-16.34 13 16.34 12.909-16.34 12.909 16.34 13-16.34 12.909 16.34z" class="B"/><path d="M93.435 536.762l-16.34 12.909 16.34 13h-6.139l-16.25-13 16.34-12.909-16.34-12.909 16.34-13-16.34-12.909 16.34-12.91h-.09 6.139l-16.34 12.91 16.34 12.909-16.34 13 16.34 12.909z" class="E"/><path d="M115.914 536.762l-16.34 12.909 16.34 13h-6.139l-16.34-13 16.34-12.909-16.34-12.909 16.34-13-16.34-12.909 16.34-12.91h6.139l-16.34 12.91 16.34 12.909-16.34 13 16.34 12.909zm385.476-43.784H391.073v110.317H501.39V492.978zm787.83-106.976a2.53 2.53 0 0 0 2.53-2.528c0-1.396-1.13-2.527-2.53-2.527-1.39 0-2.52 1.131-2.52 2.527s1.13 2.528 2.52 2.528zm25.28 0a2.53 2.53 0 0 0 2.53-2.528c0-1.396-1.13-2.527-2.53-2.527-1.39 0-2.53 1.131-2.53 2.527s1.14 2.528 2.53 2.528zm25.28 0c1.39 0 2.53-1.132 2.53-2.528s-1.14-2.527-2.53-2.527c-1.4 0-2.53 1.131-2.53 2.527a2.53 2.53 0 0 0 2.53 2.528zm-769.6 242.12c0 1.354-1.083 2.527-2.528 2.527-1.354 0-2.527-1.083-2.527-2.527 0-1.355 1.083-2.528 2.527-2.528s2.528 1.173 2.528 2.528z" class="B"/><use xlink:href="#h" class="B"/><use xlink:href="#h" x="25.277" class="B"/></g></g><defs ><path id="C" d="M1045.31 826.249a6.68 6.68 0 0 0 0-9.447c-2.61-2.609-6.84-2.609-9.45 0a6.68 6.68 0 0 0 0 9.447c2.61 2.609 6.84 2.609 9.45 0z"/><path id="D" d="M1160.67 826.229a6.68 6.68 0 0 0 0-9.447c-2.61-2.609-6.84-2.609-9.45 0a6.7 6.7 0 0 0 0 9.447c2.61 2.609 6.84 2.609 9.45 0z"/><path id="E" d="M1191.3 823.19a6.69 6.69 0 0 0-4.97-8.037c-3.59-.848-7.19 1.376-8.04 4.966a6.69 6.69 0 0 0 4.97 8.037c3.59.848 7.19-1.376 8.04-4.966z"/><path id="F" d="M1131.9 855.075a6.68 6.68 0 0 0 0-9.448c-2.61-2.609-6.84-2.609-9.45 0a6.68 6.68 0 0 0 0 9.448c2.61 2.608 6.84 2.608 9.45 0z"/><path id="G" d="M1220.2 851.992a6.69 6.69 0 0 0-4.97-8.036c-3.59-.848-7.19 1.375-8.04 4.966a6.69 6.69 0 0 0 4.97 8.036c3.59.848 7.19-1.375 8.04-4.966z"/><path id="H" d="M1045.32 883.931a6.68 6.68 0 0 0 0-9.448c-2.61-2.608-6.84-2.608-9.45 0a6.68 6.68 0 0 0 0 9.448c2.61 2.609 6.84 2.609 9.45 0z"/><path id="I" d="M1189.48 1028.11c2.61-2.61 2.61-6.84 0-9.45a6.67 6.67 0 0 0-9.44 0c-2.61 2.61-2.61 6.84 0 9.45a6.67 6.67 0 0 0 9.44 0z"/><path id="J" d="M954.122 1058.92a6.69 6.69 0 0 0 6.68-6.68 6.69 6.69 0 0 0-6.68-6.69 6.69 6.69 0 0 0-6.681 6.69 6.69 6.69 0 0 0 6.681 6.68z"/><path id="K" d="M1011.81 1058.92c3.69 0 6.68-3 6.68-6.68a6.69 6.69 0 0 0-6.68-6.69 6.69 6.69 0 0 0-6.68 6.69c0 3.68 2.99 6.68 6.68 6.68z"/><path id="L" d="M1040.61 1058.92c3.68 0 6.68-3 6.68-6.68 0-3.69-3-6.69-6.68-6.69a6.69 6.69 0 0 0-6.68 6.69c0 3.68 2.99 6.68 6.68 6.68z"/><path id="M" d="M878.11 729.139H570.36v7.403h307.75v-7.403z"/><path id="N" d="M197.432 57.941h-8.666v8.666h8.666v-8.666z"/><path id="O" d="M1627.47 742.234l76.53-76.536-1.59-1.596-76.54 76.536 1.6 1.596z"/><path id="P" d="M1614.42 710.86l-22.09 22.086 1.6 1.596 22.09-22.086-1.6-1.596z"/><path id="Q" d="M1795.8 550.064l-35.43 35.428 1.6 1.596 35.43-35.428-1.6-1.596z"/><path id="R" d="M1774.28 533.598l83.56-83.558-1.6-1.596-83.56 83.559 1.6 1.595z"/><path id="S" d="M1489.83 756.306l22.08-22.086-1.59-1.596-22.09 22.086 1.6 1.596z"/><path id="T" d="M1580.56 686.177l35.43-35.428-1.6-1.596-35.43 35.428 1.6 1.596z"/><path id="U" d="M1533.24 689.001l-22.08 22.087 1.59 1.596 22.09-22.087-1.6-1.596z"/><path id="V" d="M1667.98 492.479l-35.43 35.428 1.59 1.596 35.43-35.428-1.59-1.596z"/><path id="W" d="M1723.2 272.476l-76.54 76.537 1.6 1.596 76.53-76.537-1.59-1.596z"/><path id="X" d="M295.11 344.836a3.7 3.7 0 1 0 0-7.402 3.7 3.7 0 1 0 0 7.402z"/><path id="Y" d="M319.485 366.051a3.7 3.7 0 0 0 3.701-3.701c0-2.044-1.657-3.702-3.701-3.702s-3.701 1.658-3.701 3.702a3.7 3.7 0 0 0 3.701 3.701z"/><path id="Z" d="M319.485 387.176c2.044 0 3.701-1.658 3.701-3.702a3.7 3.7 0 1 0-7.402 0c0 2.044 1.657 3.702 3.701 3.702z"/><path id="a" d="M1310.8 1043.21c2.04 0 3.7-1.66 3.7-3.7 0-2.05-1.66-3.71-3.7-3.71s-3.7 1.66-3.7 3.71c0 2.04 1.66 3.7 3.7 3.7z"/><path id="b" d="M1335.17 1043.21c2.05 0 3.71-1.66 3.71-3.7a3.71 3.71 0 0 0-3.71-3.71c-2.04 0-3.7 1.66-3.7 3.71 0 2.04 1.66 3.7 3.7 3.7z"/><path id="c" d="M1435.02 907.523c2.04 0 3.7-1.657 3.7-3.701s-1.66-3.701-3.7-3.701c-2.05 0-3.7 1.657-3.7 3.701s1.65 3.701 3.7 3.701z"/><path id="d" d="M1435.02 928.648c2.04 0 3.7-1.657 3.7-3.701s-1.66-3.702-3.7-3.702c-2.05 0-3.7 1.657-3.7 3.702s1.65 3.701 3.7 3.701z"/><path id="e" d="M1463.19 924.947c0 2.076-1.72 3.701-3.71 3.701-1.98 0-3.7-1.715-3.7-3.701 0-2.077 1.72-3.702 3.7-3.702 1.99 0 3.71 1.625 3.71 3.702z"/><path id="f" d="M1435.02 949.863c2.04 0 3.7-1.658 3.7-3.702s-1.66-3.701-3.7-3.701c-2.05 0-3.7 1.657-3.7 3.701a3.7 3.7 0 0 0 3.7 3.702z"/><path id="g" d="M1435.02 970.987c2.04 0 3.7-1.657 3.7-3.701s-1.66-3.702-3.7-3.702a3.7 3.7 0 0 0-3.7 3.702c0 2.044 1.65 3.701 3.7 3.701z"/><path id="h" d="M595.457 628.121c0 1.354-1.083 2.528-2.528 2.528-1.354 0-2.527-1.084-2.527-2.528 0-1.354 1.083-2.528 2.527-2.528s2.528 1.174 2.528 2.528z"/></defs></svg>