<svg xmlns="http://www.w3.org/2000/svg" xmlns:xlink="http://www.w3.org/1999/xlink" width="136" height="108.544" viewBox="0 0 136 108.544"><defs><style>.a{fill:#fff;}.b{filter:url(#g);}.c{filter:url(#e);}.d{filter:url(#c);}.e{filter:url(#a);}</style><filter id="a" x="48.104" y="35.051" width="50.614" height="59.017" filterUnits="userSpaceOnUse"><feOffset input="SourceAlpha"/><feGaussianBlur stdDeviation="6" result="b"/><feFlood flood-color="#fff"/><feComposite operator="in" in2="b"/><feComposite in="SourceGraphic"/></filter><filter id="c" x="68.186" y="35.051" width="50.615" height="59.017" filterUnits="userSpaceOnUse"><feOffset input="SourceAlpha"/><feGaussianBlur stdDeviation="6" result="d"/><feFlood flood-color="#fff"/><feComposite operator="in" in2="d"/><feComposite in="SourceGraphic"/></filter><filter id="e" x="85.385" y="35.051" width="50.614" height="59.017" filterUnits="userSpaceOnUse"><feOffset input="SourceAlpha"/><feGaussianBlur stdDeviation="6" result="f"/><feFlood flood-color="#fff"/><feComposite operator="in" in2="f"/><feComposite in="SourceGraphic"/></filter><filter id="g" x="0" y="0" width="106.994" height="108.544" filterUnits="userSpaceOnUse"><feOffset input="SourceAlpha"/><feGaussianBlur stdDeviation="6" result="h"/><feFlood flood-color="#fff"/><feComposite operator="in" in2="h"/><feComposite in="SourceGraphic"/></filter></defs><g transform="translate(-121 -6.989)"><g transform="translate(187.104 60.04)"><g class="e" transform="matrix(1, 0, 0, 1, -66.1, -53.05)"><path class="a" d="M105.746,94.956h10.177a1.479,1.479,0,0,1,0,2.958H102.788V88.27c0-2.219,1.124-3.343,3.342-3.343h8.314V77.857H104.267a1.479,1.479,0,0,1,0-2.959h9.822A3.052,3.052,0,0,1,117.4,78.36v6.065a3.052,3.052,0,0,1-3.313,3.461h-8.343Z" transform="translate(-36.68 -21.85)"/></g><g transform="translate(20.082)"><g class="d" transform="matrix(1, 0, 0, 1, -86.19, -53.05)"><path class="a" d="M148.659,96.435a1.479,1.479,0,1,1-2.959,0V74.9h9.822a4.352,4.352,0,0,1,3.4,1.213c1.272,1.184,1.39,2.278,1.39,3.876V84.01A4.865,4.865,0,0,1,159.1,87.8c-1.155,1.3-2.367,1.42-3.964,1.42h-6.479Zm0-10.177h6.568c1.746,0,2.13-.444,2.13-2.13V79.987c0-1.687-.384-2.13-2.13-2.13h-6.568Z" transform="translate(-59.51 -21.85)"/></g></g><g transform="translate(37.282)"><g class="c" transform="matrix(1, 0, 0, 1, -103.39, -53.05)"><path class="a" d="M191.238,94.956h4.35a1.479,1.479,0,1,1,0,2.958H183.931a1.479,1.479,0,0,1,0-2.958h4.349v-17.1h-4.349a1.479,1.479,0,0,1,0-2.959h11.656a1.479,1.479,0,0,1,0,2.959h-4.35Z" transform="translate(-79.07 -21.85)"/></g></g></g><g transform="translate(139 24.989)"><g class="b" transform="matrix(1, 0, 0, 1, -18, -18)"><path class="a" d="M36.272,72.544A36.272,36.272,0,1,1,70.92,25.512a1.638,1.638,0,1,1-3.129.971A32.994,32.994,0,1,0,52.707,64.89a1.638,1.638,0,0,1,1.634,2.839A36.272,36.272,0,0,1,36.272,72.544Z" transform="translate(18 18)"/></g></g></g></svg>