<svg xmlns="http://www.w3.org/2000/svg" width="138.14" height="22.261" fill="none"><path d="M15.208 18.392H0c0-.95.095-1.806.238-2.566.142-.76.427-1.474.76-2.139a6.87 6.87 0 011.52-1.853c.666-.57 1.474-1.141 2.472-1.664.855-.475 1.616-.855 2.281-1.235a15.851 15.851 0 001.664-.95 4.73 4.73 0 00.998-.904c.237-.285.332-.665.332-1.045 0-.618-.237-1.189-.76-1.616-.523-.475-1.236-.666-2.186-.666-.523 0-.95.048-1.378.19a5.468 5.468 0 00-1.189.57c-.38.238-.712.476-.998.761-.285.285-.57.57-.855.903L.19 3.042a6.875 6.875 0 011.188-.95 15.395 15.395 0 011.806-.999C3.85.808 4.61.523 5.465.333 6.225.143 7.13 0 8.08 0c1.093 0 2.044.143 2.9.38.855.285 1.567.618 2.138 1.093.57.475.998 1.046 1.33 1.711.286.665.476 1.378.476 2.186 0 .76-.143 1.378-.428 1.949-.285.57-.618 1.093-1.046 1.52a10.32 10.32 0 01-1.378 1.141c-.475.333-.998.618-1.426.856-.38.19-.807.475-1.283.712-.475.286-.95.57-1.425.903-.476.333-.903.666-1.331.998-.38.333-.713.713-.903 1.046h9.552v3.897z" fill="#ff9770"/><path d="M35.216 18.392c-.808.143-1.569.238-2.234.238-1.378 0-2.471-.38-3.28-1.141-.807-.76-1.187-1.853-1.187-3.28V4.468h-4.468v13.877h-4.514V4.467h-2.567V.523h19.39v3.992h-3.28v8.126c0 1.379.619 2.092 1.854 2.092.286 0 .57-.048.903-.143a5.07 5.07 0 00.903-.333l.666 3.47a9.806 9.806 0 01-2.186.665z" fill="#70d6ff"/><path d="M45.077 18.36c0-.549.043-1.043.127-1.483.085-.451.23-.866.436-1.245.218-.378.508-.732.871-1.062.375-.33.847-.653 1.416-.97.496-.269.932-.5 1.307-.696.387-.207.708-.397.962-.567.254-.171.448-.342.58-.513.134-.183.2-.39.2-.623a1.2 1.2 0 00-.435-.933c-.29-.269-.708-.403-1.252-.403-.291 0-.557.042-.8.128a2.92 2.92 0 00-.689.311c-.206.134-.4.287-.58.458-.17.159-.328.33-.473.513l-1.56-1.813c.157-.17.38-.354.67-.55.291-.207.63-.396 1.017-.567.4-.183.835-.33 1.307-.44a6.29 6.29 0 011.543-.182c.617 0 1.168.079 1.652.238.484.146.89.36 1.216.64.339.269.593.599.763.99.181.378.272.793.272 1.244 0 .427-.079.806-.236 1.135a3.41 3.41 0 01-.6.88 4.712 4.712 0 01-.798.677c-.278.183-.55.348-.817.494-.218.122-.466.263-.744.421a10.59 10.59 0 00-.835.531 7.19 7.19 0 00-.744.586c-.23.195-.406.39-.527.586h5.5v2.216zM61.44 18.544c-.75 0-1.403-.165-1.96-.495a3.637 3.637 0 01-1.307-1.373v5.585H55.74V8.766h2.123v1.648c.351-.561.805-1 1.362-1.318.556-.33 1.198-.495 1.924-.495.641 0 1.234.135 1.779.403.544.257 1.01.61 1.397 1.062.4.44.708.964.926 1.575.23.598.345 1.233.345 1.904 0 .696-.103 1.349-.309 1.96a4.926 4.926 0 01-.87 1.592 3.932 3.932 0 01-1.308 1.062 3.655 3.655 0 01-1.67.385zm-.817-2.088c.364 0 .696-.079.999-.238.314-.158.58-.372.798-.64.218-.27.388-.58.509-.934.12-.354.181-.72.181-1.099a3.05 3.05 0 00-.2-1.117 2.699 2.699 0 00-.562-.915 2.457 2.457 0 00-.835-.605 2.421 2.421 0 00-1.035-.22c-.23 0-.466.043-.708.129a2.299 2.299 0 00-.671.33 3.2 3.2 0 00-.563.512 2.24 2.24 0 00-.363.641v2.252c.218.55.55 1.007.998 1.373.448.354.932.531 1.452.531zM67.245 18.36V8.767h2.432v9.595zm0-10.93V4.994h2.432V7.43zM71.817 18.36v-2.636h1.997v2.637zM76.53 11.146h-1.253V9.28h1.253v-.586c0-.525.084-1.025.254-1.501.181-.476.435-.885.762-1.227a3.753 3.753 0 011.216-.842 4.107 4.107 0 011.634-.312c.69 0 1.319.116 1.888.348.58.22 1.125.5 1.633.842l-.962 1.831a3.759 3.759 0 00-1.107-.677 3.417 3.417 0 00-1.289-.256c-.544 0-.95.17-1.216.512a1.94 1.94 0 00-.381 1.19v.678h5.1v9.082H81.63v-7.215h-2.668v7.215H76.53zM95.105 18.36h-2.432v-5.383c0-.769-.133-1.33-.4-1.684-.266-.354-.635-.531-1.107-.531-.242 0-.49.049-.744.146a2.743 2.743 0 00-.726.422c-.218.17-.417.378-.599.622a2.509 2.509 0 00-.4.806v5.603h-2.432V8.766h2.197v1.776c.35-.61.859-1.086 1.525-1.428.665-.342 1.415-.513 2.25-.513.593 0 1.077.11 1.453.33.375.22.665.507.87.86.207.355.346.757.418 1.209.085.452.127.91.127 1.373zM99.816 18.544c-.46 0-.89-.074-1.289-.22a3.301 3.301 0 01-1.034-.64c-.29-.282-.52-.605-.69-.971a3.03 3.03 0 01-.236-1.209c0-.451.097-.866.29-1.245.206-.39.484-.72.835-.989a4.095 4.095 0 011.289-.622 5.342 5.342 0 011.634-.238c.423 0 .835.036 1.234.11.411.073.774.177 1.09.311v-.55c0-.634-.182-1.122-.546-1.464-.35-.342-.877-.513-1.579-.513-.508 0-1.004.092-1.488.275-.484.183-.98.451-1.488.805l-.745-1.556c1.223-.818 2.541-1.227 3.957-1.227 1.368 0 2.427.342 3.177 1.026.762.671 1.143 1.648 1.143 2.93v2.984c0 .256.043.44.127.55.097.109.25.17.454.182v2.088a5.367 5.367 0 01-1.07.128c-.46 0-.818-.104-1.072-.312a1.356 1.356 0 01-.453-.824l-.055-.53a4.213 4.213 0 01-1.543 1.281 4.396 4.396 0 01-1.942.44zm.69-1.795c.411 0 .798-.073 1.161-.22.376-.146.666-.341.872-.585.266-.208.4-.44.4-.696v-1.099a5.33 5.33 0 00-.945-.256 4.63 4.63 0 00-.98-.11c-.629 0-1.144.147-1.543.44-.4.28-.599.64-.599 1.08 0 .415.157.763.472 1.043.315.269.702.403 1.162.403zM116.483 18.36h-2.432v-5.383c0-.769-.133-1.33-.399-1.684-.267-.354-.636-.531-1.108-.531-.242 0-.49.049-.744.146a2.745 2.745 0 00-.726.422c-.218.17-.417.378-.599.622a2.482 2.482 0 00-.399.806v5.603h-2.433V8.766h2.197v1.776a3.617 3.617 0 011.524-1.428c.666-.342 1.416-.513 2.251-.513.593 0 1.077.11 1.452.33.376.22.666.507.872.86.205.355.345.757.417 1.209.085.452.127.91.127 1.373zM118 13.563c0-.671.114-1.306.344-1.904.23-.598.563-1.123.998-1.575a4.867 4.867 0 011.58-1.08c.617-.268 1.313-.403 2.087-.403 1.041 0 1.924.226 2.65.678.738.452 1.29 1.044 1.652 1.776l-2.378.732a2.08 2.08 0 00-.817-.805 2.21 2.21 0 00-1.125-.293c-.35 0-.678.073-.98.22-.303.134-.569.33-.799.585a2.817 2.817 0 00-.526.898 3.604 3.604 0 00-.182 1.171c0 .428.067.818.2 1.172s.308.66.526.916c.23.256.496.457.8.604.301.134.622.201.961.201.436 0 .835-.11 1.198-.33.375-.219.635-.488.781-.805l2.377.732c-.326.733-.865 1.331-1.615 1.795-.75.464-1.652.696-2.705.696-.774 0-1.47-.135-2.087-.403a4.853 4.853 0 01-1.579-1.08 5.094 5.094 0 01-1.017-1.593 5.355 5.355 0 01-.345-1.905zM133.166 18.544c-.762 0-1.452-.129-2.069-.385a4.853 4.853 0 01-1.579-1.08 4.876 4.876 0 01-1.017-1.575 5.21 5.21 0 01-.345-1.886c0-.683.115-1.324.345-1.922.23-.61.563-1.142 1-1.593.434-.464.961-.83 1.578-1.099.63-.268 1.331-.403 2.105-.403.775 0 1.465.135 2.07.403a4.66 4.66 0 011.561 1.08c.436.452.762.977.98 1.575.23.598.345 1.22.345 1.868 0 .158-.006.311-.018.457 0 .147-.012.27-.037.367h-7.35c.035.378.126.714.271 1.007a2.443 2.443 0 001.344 1.227c.29.11.592.164.907.164.484 0 .938-.116 1.361-.348.436-.244.733-.561.89-.952l2.087.586c-.35.733-.913 1.337-1.688 1.813-.762.464-1.676.696-2.74.696zm2.47-5.786c-.062-.72-.328-1.294-.8-1.721-.46-.44-1.022-.66-1.688-.66-.327 0-.635.061-.926.184a2.29 2.29 0 00-.744.476 2.64 2.64 0 00-.544.75 2.783 2.783 0 00-.236.97z" fill="#444"/></svg>