<svg xmlns="http://www.w3.org/2000/svg" width="16" height="16" fill="currentColor" xmlns:v="https://vecta.io/nano"><path d="M9.503 5.763l.727 2.908c-.583.143-1.361.236-2.231.236s-1.647-.093-2.231-.236l.727-2.908A11.99 11.99 0 0 0 8 5.854a11.99 11.99 0 0 0 1.503-.092zm-.187-.746L8.74 2.711c-.192-.771-1.288-.771-1.48 0l-.576 2.305A10.8 10.8 0 0 0 8 5.091c.472 0 .916-.027 1.316-.075zm3.355 6.573a.382.382 0 0 1 .028.733l-4.579 1.526a.382.382 0 0 1-.241 0l-4.579-1.526a.382.382 0 0 1 .028-.733l1.825-.456.431-1.722c.658.162 1.499.259 2.415.259s1.757-.097 2.415-.259l.431 1.722z" fill="#ffd670"/></svg>