<svg xmlns="http://www.w3.org/2000/svg" width="512" height="512" xmlns:v="https://vecta.io/nano"><defs><linearGradient id="A" x1="512" y1="512" x2="0" gradientUnits="userSpaceOnUse" y2="0"><stop offset="0" stop-color="#0032ad"/><stop offset="1" stop-color="#000f34"/></linearGradient></defs><rect width="512.001" height="512" fill="url(#A)" rx="283.465"/><path d="M100.277 313.914h68.937c5.21 0 10.017 2.805 10.017 10.017s-4.808 10.02-10.017 10.02H80.24v-65.325c0-15.029 7.614-22.642 22.633-22.642h56.315v-47.895H90.26c-5.21 0-10.02-2.805-10.02-10.02s4.808-10.02 10.02-10.02h66.527c6.609 0 11.222 1.001 16.227 5.611 5.611 5.21 6.217 10.623 6.217 17.837v41.079c0 7.215-.606 12.622-6.217 17.834-5.005 4.61-9.618 5.611-16.227 5.611h-56.51zm136.032 10.017c0 6.412-2.805 10.02-10.02 10.02s-10.02-3.607-10.02-10.02v-145.88h66.53c9.218 0 15.833 1.404 23.048 8.216 8.613 8.017 9.415 15.431 9.415 26.254v27.241c0 10.221-.803 17.435-8.213 25.648-7.816 8.819-16.03 9.621-26.853 9.621H236.31zm0-68.934h44.487c11.828 0 14.426-3.006 14.426-14.426v-28.053c0-11.424-2.605-14.43-14.426-14.43h-44.487zm155.97 58.917h29.462c5.21 0 10.02 2.805 10.02 10.017s-4.808 10.02-10.02 10.02h-78.96c-5.21 0-10.017-2.805-10.017-10.02s4.808-10.017 10.017-10.017h29.455V198.089H342.78c-5.21 0-10.017-2.805-10.017-10.02s4.815-10.017 10.017-10.017h78.954c5.21 0 10.02 2.805 10.02 10.02s-4.808 10.02-10.02 10.02h-29.455z" fill="#fff"/></svg>