<?xml version="1.0" standalone="no"?>
<!DOCTYPE svg PUBLIC "-//W3C//DTD SVG 20010904//EN"
 "http://www.w3.org/TR/2001/REC-SVG-20010904/DTD/svg10.dtd">
<svg version="1.0" xmlns="http://www.w3.org/2000/svg"
 width="1024.000000pt" height="1024.000000pt" viewBox="0 0 1024.000000 1024.000000"
 preserveAspectRatio="xMidYMid meet">
<metadata>
Created by potrace 1.14, written by Peter Selinger 2001-2017
</metadata>
<g transform="translate(0.000000,1024.000000) scale(0.100000,-0.100000)"
fill="#000000" stroke="none">
<path d="M3489 8826 c-2 -2 -45 -7 -95 -10 -51 -4 -100 -8 -110 -10 -11 -2
-48 -7 -84 -11 -36 -4 -67 -8 -70 -10 -3 -2 -27 -6 -54 -9 -48 -7 -131 -25
-301 -66 -352 -86 -796 -286 -1130 -510 -331 -222 -659 -533 -902 -855 -284
-377 -502 -824 -622 -1275 -25 -97 -77 -350 -86 -419 -4 -30 -8 -61 -10 -70
-28 -151 -28 -687 0 -911 26 -201 72 -426 127 -610 34 -116 108 -321 138 -387
11 -24 20 -45 20 -48 0 -8 121 -251 160 -320 256 -460 619 -868 1055 -1190
427 -314 924 -534 1445 -639 190 -38 234 -44 465 -65 96 -8 500 -7 575 3 25 3
72 8 105 11 90 9 129 14 250 36 61 11 124 23 140 25 52 9 285 74 374 104 221
75 305 110 511 213 189 94 244 138 255 203 9 56 -10 116 -49 152 -76 70 -120
66 -307 -30 -444 -229 -873 -350 -1369 -384 -152 -11 -498 -4 -576 10 -11 2
-44 7 -74 11 -74 9 -89 12 -180 30 -14 2 -41 7 -60 10 -96 16 -299 73 -450
127 -634 227 -1172 626 -1580 1172 -151 203 -318 494 -401 701 -4 11 -19 47
-32 80 -69 170 -160 497 -183 655 -3 19 -7 46 -9 60 -3 14 -7 48 -11 75 -3 28
-7 61 -10 75 -7 48 -17 276 -18 420 -1 156 8 276 29 420 7 51 13 84 20 120 2
13 7 41 10 61 3 20 10 50 15 67 5 18 7 32 5 32 -2 0 2 18 10 40 8 22 14 41 14
43 -2 5 25 101 56 198 112 353 293 698 529 1009 43 58 82 107 85 110 3 3 35
39 71 80 253 293 618 578 985 770 126 66 338 153 490 203 181 60 398 112 540
131 22 3 74 10 115 16 235 34 675 29 885 -10 28 -5 66 -11 85 -14 19 -3 53 -8
75 -11 74 -11 309 -74 445 -119 475 -156 927 -435 1290 -796 122 -122 138
-139 231 -250 66 -79 189 -247 189 -258 0 -5 7 -15 14 -22 25 -20 165 -265
231 -403 66 -138 113 -256 160 -396 49 -143 91 -186 184 -186 71 0 122 31 151
91 27 54 25 81 -11 188 -118 345 -291 692 -481 965 -155 221 -429 525 -621
687 -374 318 -792 554 -1252 706 -66 22 -127 41 -135 43 -8 2 -49 12 -90 23
-68 19 -162 40 -278 63 -24 5 -64 11 -90 14 -26 3 -58 8 -71 11 -13 3 -53 7
-90 10 -36 3 -77 8 -91 11 -28 6 -545 14 -551 9z"/>
<path d="M5000 5221 c-48 -25 -72 -70 -72 -132 1 -64 26 -108 76 -133 36 -18
69 -19 577 -19 l538 0 1 -362 0 -363 -457 0 c-252 0 -474 -3 -493 -7 -121 -22
-196 -92 -231 -215 -16 -57 -20 -1098 -4 -1103 6 -2 321 -3 700 -3 l690 1 33
23 c43 31 62 71 62 130 0 59 -29 109 -78 134 -30 14 -91 16 -560 17 -290 0
-533 0 -539 1 -10 0 -13 79 -13 360 l0 360 463 0 c515 0 526 1 610 65 50 38
92 101 109 162 11 41 15 791 4 853 -20 114 -98 200 -211 235 -42 12 -140 15
-610 15 -528 0 -562 -1 -595 -19z"/>
<path d="M6985 5228 c-2 -7 -3 -517 -2 -1133 2 -1245 -2 -1166 68 -1196 50
-20 144 -16 177 8 56 41 56 45 58 463 1 212 2 390 3 395 1 6 136 10 384 10
481 -1 529 7 640 105 80 71 139 173 156 269 9 52 7 688 -2 741 -27 158 -175
302 -347 339 -26 6 -276 10 -588 11 -429 0 -543 -2 -547 -12z m1115 -313 c20
-12 43 -38 54 -60 18 -36 20 -64 21 -320 1 -308 -5 -371 -40 -409 -41 -44 -85
-48 -455 -48 -190 0 -356 1 -370 1 l-25 1 1 423 c1 232 2 425 3 428 0 4 175 6
389 5 369 -1 389 -2 422 -21z"/>
<path d="M8833 5229 c-39 -11 -82 -61 -85 -97 -6 -98 12 -141 71 -176 30 -17
56 -19 277 -19 l244 0 0 -873 0 -873 -247 -3 c-217 -3 -252 -5 -281 -21 -89
-49 -89 -216 1 -264 29 -16 87 -17 671 -18 577 0 643 1 677 17 49 22 70 56 75
121 4 62 -16 109 -59 141 -29 21 -60 23 -508 26 l-25 0 0 873 0 874 233 0
c269 0 301 6 336 62 33 54 31 149 -3 186 -53 56 -26 54 -711 54 -357 0 -648
-5 -666 -10z"/>
</g>
</svg>
