<svg xmlns="http://www.w3.org/2000/svg" width="54" height="54" fill="none"><path fill-rule="evenodd" clip-rule="evenodd" d="M51.955 37.824C53.243 35.86 54 33.402 54 30.621c0-1.26-.188-2.513-.557-3.718-1.436-4.666-5.503-8.225-10.532-8.773-3.559-.387-7.837 1.12-12.598 4.752-2.022-2.547-4.124-5.283-6.284-7.75-4.239-4.847-7.021-6.51-10.798-6.51-5.984 0-10.056 4.54-11.966 10.056A23.047 23.047 0 000 26.211c.01 4.1.963 7.888 2.61 10.99 4.141 7.812 12.662 11.316 21.574 4.676 2.117-1.574 4.106-3.592 6.117-5.63a35.94 35.94 0 004.602 3.89c6.63 4.627 13.672 2.847 17.052-2.314zm-6.679-11.848c2.283 3.546 1.68 8.389-1.598 10.926-2.646-1.532-5.019-4.01-7.086-6.411 3.124-2.398 6.042-3.874 8.684-4.515zm-31.085-8.15c3.274 2.616 6.4 6.82 9.642 10.963-3.015 2.99-6.019 5.885-9.099 7.762a13.506 13.506 0 01-.543-18.725z" fill="#1d4e89"/></svg>