<svg version="1.0" width="759.696" height="759.696" viewBox="0 0 569.772 569.772" xmlns="http://www.w3.org/2000/svg"><rect style="fill:#000;stroke:#000;stroke-width:2.84315;stroke-linejoin:round;stroke-miterlimit:4;stroke-dasharray:none;stroke-dashoffset:0;stroke-opacity:1" width="566.929" height="566.929" x="1.422" y="1.422" rx="85.039" ry="85.039"/><g style="fill:#fff"><path d="M93 3693c-33-7-81-59-88-96-8-43 1-105 20-134 37-55 34-55 602-55h523v-698l-432-1c-238 0-445-2-459-4-107-14-179-62-224-150l-30-59-3-533-3-533h666c737 0 714-2 755 64 18 30 22 47 18 92-6 65-31 104-79 121-25 9-178 12-551 12l-518 1v697l438 1c240 0 453 3 472 7 119 21 218 120 235 236 9 59 9 725 0 792-13 90-66 164-160 219l-40 23-560 1c-308 1-570 0-582-3zM1980 2620c0-1190-3-1130 62-1170 41-25 116-26 164-4 66 31 67 35 68 459l1 380 355 1c372 2 437 6 507 29 127 43 232 163 269 305 14 54 17 117 17 365-1 326-4 370-34 449-25 67-118 172-185 208-106 57-109 57-689 58h-534zm1075 765c69-35 70-40 70-397 0-305-1-318-21-345-42-57-46-58-455-61l-376-3v829l371-1c349-2 373-3 411-22zM3761 3687c-49-17-74-56-79-124-3-49 0-64 20-93 40-60 55-62 314-62h234l1-26c1-36 1-1566 0-1619l-1-43h-230c-258 0-285-5-320-62-27-44-27-122 0-166 39-63 26-62 702-62 575 0 615 1 647 18 48 26 71 72 67 137-3 55-19 86-58 113-19 14-61 18-268 22l-245 5v1680l237 2c255 2 280 6 313 57 40 61 25 170-29 209l-31 22-620 2c-464 2-629-1-654-10z" style="fill:#fff" transform="matrix(.0883 0 0 -.0883 58.974 511.387)"/></g></svg>