<svg xmlns="http://www.w3.org/2000/svg" width="37.402" height="37.402" viewBox="0 0 9.896 9.896"  xmlns:v="https://vecta.io/nano"><path d="M4.024 7.379H0A3.65 3.65 0 0 1 .063 6.7c.038-.201.113-.39.201-.566a1.79 1.79 0 0 1 .402-.49c.176-.15.39-.302.654-.44l.604-.327a4.07 4.07 0 0 0 .44-.252c.113-.075.201-.163.264-.238a.429.429 0 0 0 .088-.277.535.535 0 0 0-.201-.428c-.138-.125-.327-.176-.579-.176a1.13 1.13 0 0 0-.364.05 1.447 1.447 0 0 0-.315.152c-.1.062-.188.125-.264.2l-.226.24-.717-.83a1.82 1.82 0 0 1 .315-.252c.138-.088.289-.176.477-.263a3.53 3.53 0 0 1 .604-.201 2.885 2.885 0 0 1 1.459.013c.226.075.415.163.565.289a1.38 1.38 0 0 1 .353.452c.075.177.125.365.125.579a1.1 1.1 0 0 1-.113.515c-.075.151-.163.29-.277.403a2.73 2.73 0 0 1-.364.302c-.126.088-.264.163-.377.226l-.34.189-.377.238a8.56 8.56 0 0 0-.352.264c-.1.089-.189.19-.24.277h2.528V7.38z" fill="#ff9770"/><path d="M9.317 7.28a3.508 3.508 0 0 1-.59.063c-.365 0-.654-.1-.868-.302s-.315-.49-.315-.867V3.596H6.363v3.672H5.168V3.596h-.679V2.552h5.13v1.057h-.867v2.15c0 .364.163.553.49.553a1.342 1.342 0 0 0 .478-.126l.176.918a2.594 2.594 0 0 1-.579.176z" fill="#70d6ff"/></svg>