<svg xmlns="http://www.w3.org/2000/svg" xmlns:xlink="http://www.w3.org/1999/xlink" width="512" height="512" viewBox="0 0 512 512">
  <defs>
    <linearGradient id="linear-gradient" x1="1" y1="1" x2="0" gradientUnits="objectBoundingBox">
      <stop offset="0" stop-color="#0032ad"/>
      <stop offset="1" stop-color="#000f34"/>
    </linearGradient>
  </defs>
  <g id="Group_530" data-name="Group 530" transform="translate(-7849 -173)">
    <rect id="Rectangle_286" data-name="Rectangle 286" width="512" height="512" transform="translate(7849 173)" fill="url(#linear-gradient)"/>
    <g id="brand_white" transform="translate(8105 428.891)">
      <g id="Group_529" data-name="Group 529" transform="translate(-208 -150.891)">
        <g id="Group_527" data-name="Group 527" transform="translate(200.111 145.814)">
          <g id="Group_524" data-name="Group 524">
            <path id="Path_3154" data-name="Path 3154" d="M115.094,158.341h42.338c3.2,0,6.152,1.723,6.152,6.152s-2.953,6.154-6.152,6.154H102.788v-40.12c0-9.23,4.676-13.906,13.9-13.906h34.586V87.206H108.942c-3.2,0-6.154-1.723-6.154-6.154s2.953-6.154,6.154-6.154H149.8c4.059,0,6.892.615,9.966,3.446,3.446,3.2,3.818,6.524,3.818,10.955v25.229c0,4.431-.372,7.752-3.818,10.953-3.074,2.831-5.907,3.446-9.966,3.446H115.094Z" transform="translate(-102.788 -74.898)" fill="#fff"/>
          </g>
          <g id="Group_525" data-name="Group 525" transform="translate(83.543)">
            <path id="Path_3155" data-name="Path 3155" d="M158.008,164.493c0,3.938-1.723,6.154-6.154,6.154s-6.154-2.215-6.154-6.154V74.9h40.86c5.661,0,9.724.862,14.155,5.046,5.29,4.924,5.782,9.477,5.782,16.124V112.8c0,6.277-.493,10.708-5.044,15.752-4.8,5.416-9.845,5.909-16.492,5.909H158.008Zm0-42.336H185.33c7.264,0,8.86-1.846,8.86-8.86V96.068c0-7.016-1.6-8.862-8.86-8.862H158.008Z" transform="translate(-145.7 -74.898)" fill="#fff"/>
          </g>
          <g id="Group_526" data-name="Group 526" transform="translate(155.093)">
            <path id="Path_3156" data-name="Path 3156" d="M219,158.341h18.094c3.2,0,6.154,1.723,6.154,6.152s-2.953,6.154-6.154,6.154H188.6c-3.2,0-6.152-1.723-6.152-6.154s2.953-6.152,6.152-6.152h18.09V87.206H188.6c-3.2,0-6.152-1.723-6.152-6.154S185.405,74.9,188.6,74.9h48.49c3.2,0,6.154,1.723,6.154,6.154s-2.953,6.154-6.154,6.154H219Z" transform="translate(-182.452 -74.898)" fill="#fff"/>
          </g>
        </g>
        <g id="Group_528" data-name="Group 528">
          <path id="Path_3157" data-name="Path 3157" d="M150.891,301.781C67.69,301.781,0,234.092,0,150.89S67.69,0,150.891,0A150.174,150.174,0,0,1,295.027,106.13a6.813,6.813,0,1,1-13.015,4.038,136.614,136.614,0,0,0-131.121-96.54C75.2,13.628,13.628,75.2,13.628,150.89S75.2,288.153,150.891,288.153a137.234,137.234,0,0,0,68.369-18.211,6.814,6.814,0,0,1,6.8,11.811A150.891,150.891,0,0,1,150.891,301.781Z" fill="#fff"/>
        </g>
      </g>
    </g>
  </g>
</svg>
