<svg xmlns="http://www.w3.org/2000/svg" xmlns:xlink="http://www.w3.org/1999/xlink" width="213" height="37" fill="none" xmlns:v="https://vecta.io/nano"><path d="M69.27 30.965c0-.85.065-1.615.195-2.295.13-.699.353-1.341.669-1.927.335-.586.781-1.133 1.339-1.643.576-.51 1.302-1.011 2.176-1.501l2.008-1.077 1.478-.878c.391-.264.688-.529.892-.793a1.6 1.6 0 0 0 .307-.963c0-.567-.223-1.048-.669-1.445-.446-.415-1.088-.623-1.925-.623a3.64 3.64 0 0 0-1.227.198 4.48 4.48 0 0 0-1.06.482c-.316.208-.614.444-.893.708a7.29 7.29 0 0 0-.725.793l-2.399-2.805c.242-.264.586-.548 1.032-.85a8.73 8.73 0 0 1 1.562-.878 10.49 10.49 0 0 1 2.008-.68c.744-.189 1.534-.283 2.371-.283.948 0 1.794.123 2.538.368.744.227 1.367.557 1.869.992a3.91 3.91 0 0 1 1.171 1.53c.279.586.418 1.228.418 1.927 0 .661-.121 1.247-.363 1.756a5.28 5.28 0 0 1-.92 1.36c-.372.397-.781.746-1.227 1.048l-1.255.765-1.144.652-1.283.822c-.409.283-.79.585-1.144.907-.353.302-.623.604-.809.907h8.451v3.428H69.27zm25.143.284c-1.153 0-2.157-.255-3.012-.765a5.61 5.61 0 0 1-2.008-2.125V37h-3.737V16.12h3.263v2.55c.539-.869 1.236-1.549 2.092-2.04.855-.51 1.841-.765 2.957-.765a6.06 6.06 0 0 1 2.733.623 6.37 6.37 0 0 1 2.148 1.643c.614.68 1.088 1.492 1.422 2.436a8.18 8.18 0 0 1 .53 2.947c0 1.077-.158 2.087-.474 3.031a7.64 7.64 0 0 1-1.339 2.465c-.558.699-1.227 1.247-2.008 1.643s-1.636.595-2.566.595zm-1.255-3.23a3.24 3.24 0 0 0 1.534-.368 3.72 3.72 0 0 0 1.227-.992c.335-.416.595-.897.781-1.445a5.25 5.25 0 0 0 .279-1.7c0-.623-.102-1.199-.307-1.728-.205-.548-.493-1.02-.865-1.417-.353-.397-.781-.708-1.283-.935a3.7 3.7 0 0 0-1.59-.34c-.353 0-.716.066-1.088.198a3.52 3.52 0 0 0-1.032.51 4.98 4.98 0 0 0-.865.793c-.242.302-.428.633-.558.992v3.485a5.15 5.15 0 0 0 1.534 2.125c.688.548 1.432.822 2.231.822zm10.175 2.946V16.12h3.737v14.846h-3.737zm0-16.914v-3.768h3.737v3.768h-3.737zm7.025 16.914v-4.08h3.068v4.08h-3.068zm7.241-11.162h-1.924v-2.89h1.924v-.907a6.9 6.9 0 0 1 .391-2.323c.279-.737.669-1.369 1.171-1.898a5.77 5.77 0 0 1 1.869-1.303c.744-.321 1.58-.482 2.51-.482 1.06 0 2.027.179 2.901.538a12.22 12.22 0 0 1 2.51 1.303l-1.478 2.833c-.484-.434-1.051-.784-1.702-1.048s-1.31-.397-1.98-.397c-.837 0-1.46.264-1.869.793a3.02 3.02 0 0 0-.585 1.842v1.048h7.837v14.052h-3.737V19.803h-4.1v11.163h-3.738V19.803zm28.544 11.162h-3.738v-8.329c0-1.19-.204-2.059-.613-2.607s-.977-.822-1.702-.822c-.372 0-.753.076-1.143.227a4.2 4.2 0 0 0-1.116.652 5.04 5.04 0 0 0-.921.963 3.87 3.87 0 0 0-.613 1.247v8.67h-3.738V16.12h3.375v2.748c.539-.944 1.32-1.681 2.343-2.21s2.176-.793 3.459-.793c.911 0 1.655.17 2.231.51s1.023.784 1.339 1.332.53 1.171.641 1.87a11.51 11.51 0 0 1 .196 2.125v9.264zm7.238.284c-.707 0-1.367-.113-1.98-.34-.614-.245-1.144-.576-1.59-.992a4.97 4.97 0 0 1-1.06-1.502c-.242-.567-.363-1.19-.363-1.87 0-.699.149-1.341.447-1.927a4.59 4.59 0 0 1 1.283-1.53c.558-.416 1.218-.737 1.98-.963.762-.245 1.599-.368 2.51-.368a10.43 10.43 0 0 1 1.897.17c.632.113 1.19.274 1.674.482v-.85c0-.982-.279-1.738-.837-2.267-.539-.529-1.348-.793-2.427-.793a6.38 6.38 0 0 0-2.287.425c-.744.283-1.506.699-2.287 1.247l-1.144-2.408c1.878-1.265 3.905-1.898 6.081-1.898 2.101 0 3.728.529 4.881 1.587 1.171 1.039 1.757 2.55 1.757 4.533v4.618c0 .397.065.68.195.85.149.17.381.264.698.283v3.23c-.633.132-1.181.198-1.646.198-.707 0-1.255-.161-1.646-.482-.372-.321-.604-.746-.697-1.275l-.084-.822c-.65.869-1.441 1.53-2.37 1.983s-1.925.68-2.985.68zm1.06-2.776a4.69 4.69 0 0 0 1.785-.34c.577-.227 1.023-.529 1.339-.907.409-.321.614-.68.614-1.077v-1.7a8.17 8.17 0 0 0-1.451-.397c-.521-.113-1.023-.17-1.506-.17-.967 0-1.757.227-2.371.68-.613.434-.92.992-.92 1.672a2.08 2.08 0 0 0 .725 1.615c.483.415 1.078.623 1.785.623zm24.551 2.492h-3.737v-8.329c0-1.19-.205-2.059-.614-2.607s-.976-.822-1.701-.822a3.16 3.16 0 0 0-1.144.227 4.21 4.21 0 0 0-1.116.652c-.334.265-.641.586-.92.963a3.87 3.87 0 0 0-.614 1.247v8.67h-3.737V16.12h3.375v2.748c.539-.944 1.32-1.681 2.343-2.21s2.175-.793 3.458-.793c.911 0 1.655.17 2.231.51s1.023.784 1.339 1.332.53 1.171.642 1.87c.13.699.195 1.407.195 2.125v9.264zm2.329-7.422a8.2 8.2 0 0 1 .53-2.947c.353-.926.865-1.738 1.535-2.436s1.478-1.256 2.426-1.672 2.018-.623 3.208-.623c1.599 0 2.956.349 4.072 1.048 1.134.699 1.98 1.615 2.538 2.748l-3.654 1.133c-.316-.548-.734-.963-1.255-1.247-.521-.302-1.097-.453-1.729-.453a3.39 3.39 0 0 0-1.506.34c-.465.208-.874.51-1.228.907-.334.378-.604.84-.808 1.388a5.61 5.61 0 0 0-.279 1.813c0 .661.102 1.265.306 1.813s.475 1.02.809 1.417a3.96 3.96 0 0 0 1.228.935c.464.208.957.312 1.478.312a3.47 3.47 0 0 0 1.841-.51c.576-.34.976-.756 1.199-1.247l3.654 1.133c-.502 1.133-1.33 2.059-2.483 2.776s-2.538 1.077-4.155 1.077c-1.19 0-2.26-.208-3.208-.623s-1.757-.973-2.427-1.672c-.669-.718-1.19-1.539-1.562-2.465a8.35 8.35 0 0 1-.53-2.947zm23.306 7.706c-1.171 0-2.231-.198-3.179-.595-.949-.416-1.758-.973-2.427-1.672a7.57 7.57 0 0 1-1.562-2.437 8.12 8.12 0 0 1-.53-2.918c0-1.058.177-2.049.53-2.975.353-.944.865-1.766 1.534-2.465.669-.718 1.478-1.284 2.427-1.7.967-.416 2.045-.623 3.235-.623s2.25.208 3.18.623c.948.416 1.748.973 2.399 1.672a6.86 6.86 0 0 1 1.506 2.436 8.04 8.04 0 0 1 .53 2.89l-.028.708a2.43 2.43 0 0 1-.056.567H200.89c.055.585.195 1.105.418 1.558s.511.841.865 1.162.753.567 1.199.737.911.255 1.395.255c.743 0 1.441-.179 2.092-.538.669-.378 1.125-.869 1.366-1.473l3.208.907c-.539 1.133-1.404 2.068-2.594 2.805-1.172.718-2.575 1.077-4.212 1.077zm3.794-8.953c-.093-1.114-.503-2.002-1.228-2.663-.706-.68-1.571-1.02-2.594-1.02a3.61 3.61 0 0 0-1.422.283 3.51 3.51 0 0 0-1.144.737 4.11 4.11 0 0 0-.836 1.162 4.32 4.32 0 0 0-.363 1.502h7.587z" fill="#e8eddf"/><g fill-rule="evenodd"><path d="M51.955 29.202C53.243 27.236 54 24.779 54 21.999c0-1.26-.188-2.514-.557-3.719-1.436-4.666-5.502-8.224-10.532-8.773-3.558-.386-7.836 1.12-12.598 4.753-2.022-2.547-4.124-5.284-6.284-7.75C19.79 1.662 17.008 0 13.231 0 7.247 0 3.175 4.539 1.265 10.056.427 12.479 0 15.025 0 17.588c.011 4.1.963 7.887 2.611 10.991 4.14 7.812 12.661 11.315 21.573 4.675 2.117-1.574 4.105-3.592 6.116-5.629a35.94 35.94 0 0 0 4.603 3.89c6.63 4.627 13.672 2.847 17.052-2.314v.002zm-6.679-11.848c2.283 3.546 1.679 8.389-1.598 10.925-2.646-1.531-5.019-4.01-7.087-6.411 3.124-2.397 6.042-3.874 8.685-4.514zm-31.086-8.15c3.274 2.616 6.4 6.82 9.643 10.962-3.015 2.99-6.019 5.885-9.099 7.762-2.494-2.445-3.944-5.761-4.045-9.253s1.154-6.886 3.502-9.472h0z" fill="url(#A)"/><path d="M46.36 19.822c1.239-.71 2.692-.949 4.092-.673s2.654 1.049 3.531 2.176a12.72 12.72 0 0 0-.54-3.045 12.26 12.26 0 0 0-4.172-1.235 11.72 11.72 0 0 0-3.994.302c.489.761.855 1.595 1.083 2.47" fill="#2f3a85"/><path d="M5.561 7.021c3.063-1.058 5.892 0 8.63 2.182 3.274 2.616 6.4 6.82 9.643 10.962l2.172 2.722a60.08 60.08 0 0 0 4.296 4.739 35.94 35.94 0 0 0 4.603 3.89c6.63 4.627 13.672 2.847 17.052-2.315-2.988 1.138-5.756.529-8.277-.923-2.646-1.531-5.019-4.01-7.087-6.411l-2.602-3.107-1.962-2.369-1.715-2.133c-2.022-2.547-4.124-5.284-6.284-7.75C19.79 1.662 17.008 0 13.231 0 7.247 0 3.175 4.539 1.265 10.056c1.143-1.549 2.823-2.521 4.294-3.031" fill="url(#B)"/><path d="M13.979 4.005c3.773 1.323 7.856 6.466 12.192 11.984 2.311 2.941 4.613 5.906 7.162 8.644l.931.979c5.605 5.732 11.532 8.965 17.691 3.59-1.544.604-3.229.75-4.853.42a11.28 11.28 0 0 1-3.419-1.343c-2.272-1.316-4.343-3.329-6.192-5.393l-.894-1.018c-2.138-2.486-4.234-5.038-6.279-7.609s-4.13-5.284-6.289-7.75C19.79 1.662 17.008 0 13.231 0 7.247 0 3.175 4.539 1.265 10.056c3.119-6.129 8.791-7.423 12.714-6.051z" fill="url(#C)"/><path d="M22.995 19.091l.838 1.074 2.172 2.722a60.06 60.06 0 0 0 4.296 4.739l.977.935 1.747-1.764a46.37 46.37 0 0 1 4.391-3.863l.071-.055-.894-1.018-2.602-3.107-1.962-2.369-1.715-2.133-.84-1.059c-1.657 1.277-3.23 2.659-4.71 4.137l-1.764 1.764" fill="#2f3a85" opacity=".15"/><path d="M36.627 21.954c3.124-2.398 6.042-3.881 8.685-4.514a11.72 11.72 0 0 1 3.994-.302c1.453.16 2.866.578 4.172 1.235-1.436-4.68-5.502-8.238-10.532-8.787-3.558-.386-7.836 1.12-12.598 4.753a47.8 47.8 0 0 0-4.599 4.038l-1.88 1.868c-3.015 2.99-6.019 5.885-9.099 7.762-1.93 1.175-3.881 1.953-5.899 2.106-2.163.166-4.313-.476-6.224-1.455 4.14 7.812 12.661 11.315 21.574 4.675 2.117-1.574 4.105-3.592 6.116-5.629l1.773-1.782c1.422-1.416 2.931-2.741 4.518-3.967" fill="url(#D)"/><path d="M47.69 28.969c-1.429-.378-2.272-1.117-2.528-2.218a7.38 7.38 0 0 1-1.477 1.528 11.28 11.28 0 0 0 3.417 1.343c1.626.331 3.313.185 4.858-.42-1.764.133-3.186.055-4.266-.233" fill="#2f3a85"/><path d="M1.267 10.096C.427 12.523-.001 15.073 0 17.641c.011 4.1.963 7.886 2.611 10.992 1.911.977 4.057 1.619 6.224 1.454 2.011-.154 3.969-.93 5.899-2.106-2.497-2.445-3.948-5.764-4.049-9.257s1.155-6.89 3.506-9.476c-2.738-2.191-5.568-3.25-8.63-2.182-1.468.51-3.151 1.484-4.294 3.031z" fill="url(#E)"/><path d="M27.252 16.86l-1.046-1.335c-4.331-5.513-8.417-10.655-12.19-11.978-3.705-1.3-8.997-.206-12.201 5.116a22.04 22.04 0 0 0-.549 1.411c3.117-6.118 8.789-7.413 12.712-6.04 3.773 1.323 7.856 6.466 12.192 11.984l.849 1.039.233-.196z" fill="url(#F)"/><path d="M33.596 24.393l.706.736c5.301 5.421 10.895 8.612 16.699 4.38a9.49 9.49 0 0 0 .954-.307c-6.159 5.375-12.086 2.142-17.691-3.586l-.931-.979.263-.243z" fill="url(#G)"/><path d="M27.009 17.056l-.838-1.067.838 1.067z" fill="url(#H)"/><path d="M.196 14.584c.449-1.084 1.184-2.026 2.126-2.725a6.47 6.47 0 0 1 3.226-1.242c.401-.037.805-.037 1.207 0a6.48 6.48 0 0 1 4.813 2.86 13.49 13.49 0 0 1 2.623-4.273c-1.792-1.432-3.625-2.38-5.534-2.565a7.19 7.19 0 0 0-3.096.383c-1.468.51-3.151 1.482-4.294 3.034a23.01 23.01 0 0 0-1.071 4.528m8.307 14.24c-1.59.353-3.554.272-5.892-.244 1.911.979 4.057 1.621 6.224 1.455l.545-.056c1.821-.24 3.599-.981 5.354-2.05a13.51 13.51 0 0 1-1.992-2.47c-.817 1.806-2.229 2.93-4.234 3.369" opacity=".15" fill="#2f3a85"/><path d="M2.611 28.579c8.057 9.318 16.193 2.657 24.283-4.631 4.805-4.312 10.029-9.682 15.639-10.565 3.489-.549 8.173.923 10.909 4.895-1.436-4.664-5.502-8.223-10.532-8.771-3.558-.386-7.836 1.12-12.598 4.753-1.618 1.246-3.154 2.595-4.599 4.038l-1.881 1.868c-3.015 2.99-6.019 5.885-9.099 7.762-1.93 1.175-3.881 1.953-5.899 2.106-2.163.166-4.313-.476-6.224-1.455" fill="url(#I)"/><path d="M2.611 28.579c8.057 9.318 16.193 2.657 24.283-4.631 4.805-4.311 10.029-9.681 15.639-10.565 3.489-.549 8.173.923 10.909 4.895a10.04 10.04 0 0 0-.168-.503c-2.747-3.881-7.372-5.324-10.828-4.781-5.61.882-10.833 6.254-15.637 10.567-5.305 4.777-10.629 9.283-15.935 9.196-4.876-.078-7.875-3.968-8.263-4.179z" fill="url(#J)"/></g><defs><linearGradient id="A" x1="54" y1="18.379" x2="0" y2="18.379" xlink:href="#K"><stop stop-color="#2f3a85"/><stop offset=".17" stop-color="#354c92"/><stop offset=".53" stop-color="#467bb5"/><stop offset="1" stop-color="#5fc4ea"/></linearGradient><linearGradient id="B" x1="53.03" y1="26.254" x2="2.112" y2="7.722" xlink:href="#K"><stop stop-color="#2f3a85"/><stop offset="1" stop-color="#5fc4ea"/></linearGradient><linearGradient id="C" x1="26.612" y1="0" x2="26.612" y2="31.948" xlink:href="#K"><stop stop-color="#70c9eb" stop-opacity=".6"/><stop offset=".18" stop-color="#6ec8eb" stop-opacity=".52"/><stop offset=".53" stop-color="#68c7eb" stop-opacity=".31"/><stop offset="1" stop-color="#5fc4ea" stop-opacity="0"/></linearGradient><linearGradient id="D" x1="28.062" y1="9.526" x2="28.062" y2="36.833" xlink:href="#K"><stop offset=".097" stop-color="#5fc4ea"/><stop offset="1" stop-color="#2f3a85"/></linearGradient><linearGradient id="E" x1="7.367" y1="6.649" x2="7.367" y2="30.107" xlink:href="#K"><stop stop-color="#1b4880"/><stop offset="1" stop-color="#0597b0"/></linearGradient><linearGradient id="F" x1="1.267" y1="10.052" x2="27.252" y2="10.052" xlink:href="#K"><stop offset=".38" stop-color="#70c9eb" stop-opacity=".2"/><stop offset=".44" stop-color="#6fc9eb" stop-opacity=".97"/><stop offset=".52" stop-color="#6ec8eb" stop-opacity=".88"/><stop offset=".63" stop-color="#6bc8eb" stop-opacity=".74"/><stop offset=".75" stop-color="#68c7eb" stop-opacity=".55"/><stop offset=".88" stop-color="#63c5ea" stop-opacity=".3"/><stop offset="1" stop-color="#5fc4ea" stop-opacity=".05"/></linearGradient><linearGradient id="G" x1="33.333" y1="28.17" x2="51.955" y2="28.17" xlink:href="#K"><stop stop-color="#70c9eb" stop-opacity=".1"/><stop offset="1" stop-color="#5fc4ea" stop-opacity="0"/></linearGradient><linearGradient id="H" x1="26.171" y1="16.523" x2="27.009" y2="16.523" xlink:href="#K"><stop stop-color="#70c9eb"/><stop offset=".4" stop-color="#69c7eb" stop-opacity=".63"/><stop offset="1" stop-color="#5fc4ea" stop-opacity=".05"/></linearGradient><linearGradient id="I" x1="28.027" y1="9.448" x2="28.027" y2="33.149" xlink:href="#K"><stop offset=".243" stop-color="#71d0f3"/><stop offset="1" stop-color="#2f3a85" stop-opacity=".3"/></linearGradient><linearGradient id="J" x1="53.443" y1="23.018" x2="2.611" y2="23.018" xlink:href="#K"><stop offset=".034" stop-color="#b8ebff" stop-opacity=".05"/><stop offset=".389" stop-color="#b8ebff" stop-opacity=".5"/><stop offset=".868" stop-color="#5fc4ea" stop-opacity=".05"/></linearGradient><linearGradient id="K" gradientUnits="userSpaceOnUse"/></defs></svg>