<svg xmlns="http://www.w3.org/2000/svg" xmlns:xlink="http://www.w3.org/1999/xlink" width="227.2" height="227.2" xmlns:v="https://vecta.io/nano"><g transform="translate(-13.2 -224.3)"><defs><path id="A" d="M101.3 322.8l25.5 55.9 37.8-21.6v-43.4z"/></defs><clipPath id="B"><use xlink:href="#A"/></clipPath><g clip-path="url(#B)"><defs><path id="C" d="M-1082.9 31.3h2811v8395.3h-2811z"/></defs><clipPath id="D"><use xlink:href="#C"/></clipPath><path clip-path="url(#D)" d="M77.7 290.1h110.6v112.3H77.7z" fill="#2bbdf7"/></g><defs><path id="E" d="M202.5 427.2l30.2-61.1-19.2-58.8v-26.1l-23.6-8.8-25.3-2.1v43.4 91.8z"/></defs><clipPath id="F"><use xlink:href="#E"/></clipPath><g clip-path="url(#F)"><defs><path id="G" d="M-1082.9 31.3h2811v8395.3h-2811z"/></defs><clipPath id="H"><use xlink:href="#G"/></clipPath><path clip-path="url(#H)" d="M141 246.7h115.3v204.1H141z" fill="#2891f9"/></g><defs><path id="I" d="M211.3 270.3l-8.8 21.7v134.8l37.9-21.7V270.3z"/></defs><clipPath id="J"><use xlink:href="#I"/></clipPath><g clip-path="url(#J)"><defs><path id="K" d="M-1082.9 31.3h2811v8395.3h-2811z"/></defs><clipPath id="L"><use xlink:href="#K"/></clipPath><path clip-path="url(#L)" d="M178.9 246.7H264v203.8h-85.1z" fill="#2bbdf7"/></g><defs><path id="M" d="M164.6 270.3l37.9 21.7 37.9-21.7-37.9-21.7z"/></defs><clipPath id="N"><use xlink:href="#M"/></clipPath><g clip-path="url(#N)"><defs><path id="O" d="M-1082.9 31.3h2811v8395.3h-2811z"/></defs><clipPath id="P"><use xlink:href="#O"/></clipPath><path clip-path="url(#P)" d="M141 225h123v90.6H141z" fill="#2b6def"/></g><defs><path id="Q" d="M61.9 352.2l27 4.9 37.9 21.6v-43.3l-37.9-42.2-75.7-22.9v134.8l37.9 21.7z"/></defs><clipPath id="R"><use xlink:href="#Q"/></clipPath><g clip-path="url(#R)"><defs><path id="S" d="M-1082.9 31.3h2811v8395.3h-2811z"/></defs><clipPath id="T"><use xlink:href="#S"/></clipPath><path clip-path="url(#T)" d="M-10.4 246.7h160.8v203.8H-10.4z" fill="#2891f9"/></g><defs><path id="U" d="M51.1 248.6l-37.9 21.7 113.6 65.1 17.1-9.8 20.7-11.9z"/></defs><clipPath id="V"><use xlink:href="#U"/></clipPath><g clip-path="url(#V)"><defs><path id="W" d="M-1082.9 31.3h2811v8395.3h-2811z"/></defs><clipPath id="X"><use xlink:href="#W"/></clipPath><path clip-path="url(#X)" d="M-10.4 225h198.7v134H-10.4z" fill="#2b6def"/></g><defs><path id="Y" d="M51.1 426.8l37.8-21.7v-48l-37.8-21.7z"/></defs><clipPath id="Z"><use xlink:href="#Y"/></clipPath><g clip-path="url(#Z)"><defs><path id="a" d="M-1082.9 31.3h2811v8395.3h-2811z"/></defs><clipPath id="b"><use xlink:href="#a"/></clipPath><path clip-path="url(#b)" d="M27.4 311.7h85.1v138.7H27.4z" fill="#2bbdf7"/></g></g></svg>